<svg width="580" height="552" viewBox="0 0 580 552" fill="none" xmlns="http://www.w3.org/2000/svg">
<rect width="580" height="552" rx="10" fill="#1A1A1A"/>
<rect x="271.5" y="405.5" width="59" height="44" stroke="#B68F40"/>
<path d="M0 10C0 4.47715 4.47715 0 10 0H570C575.523 0 580 4.47715 580 10V50H0V10Z" fill="#808080"/>
<path d="M204.928 34V17.2H208.096L215.188 28.708V17.2H218.116V34H214.96L207.856 22.492V34H204.928ZM226.099 34.312C224.995 34.312 223.987 34.028 223.075 33.46C222.171 32.892 221.447 32.132 220.903 31.18C220.367 30.22 220.099 29.16 220.099 28C220.099 27.12 220.255 26.3 220.567 25.54C220.879 24.772 221.307 24.1 221.851 23.524C222.403 22.94 223.043 22.484 223.771 22.156C224.499 21.828 225.275 21.664 226.099 21.664C227.203 21.664 228.207 21.948 229.111 22.516C230.023 23.084 230.747 23.848 231.283 24.808C231.827 25.768 232.099 26.832 232.099 28C232.099 28.872 231.943 29.688 231.631 30.448C231.319 31.208 230.887 31.88 230.335 32.464C229.791 33.04 229.155 33.492 228.427 33.82C227.707 34.148 226.931 34.312 226.099 34.312ZM226.099 31.384C226.683 31.384 227.207 31.228 227.671 30.916C228.135 30.604 228.499 30.192 228.763 29.68C229.035 29.168 229.171 28.608 229.171 28C229.171 27.376 229.031 26.808 228.751 26.296C228.479 25.776 228.107 25.364 227.635 25.06C227.171 24.748 226.659 24.592 226.099 24.592C225.523 24.592 225.003 24.748 224.539 25.06C224.075 25.372 223.707 25.788 223.435 26.308C223.163 26.828 223.027 27.392 223.027 28C223.027 28.632 223.167 29.204 223.447 29.716C223.727 30.228 224.099 30.636 224.563 30.94C225.035 31.236 225.547 31.384 226.099 31.384ZM240.833 34H237.053L232.685 21.988H235.805L238.949 30.628L242.081 21.988H245.201L240.833 34ZM251.786 34.312C250.682 34.312 249.674 34.028 248.762 33.46C247.858 32.892 247.134 32.128 246.59 31.168C246.054 30.208 245.786 29.148 245.786 27.988C245.786 27.116 245.942 26.3 246.254 25.54C246.566 24.772 246.994 24.1 247.538 23.524C248.09 22.94 248.73 22.484 249.458 22.156C250.186 21.828 250.962 21.664 251.786 21.664C252.722 21.664 253.578 21.864 254.354 22.264C255.138 22.656 255.802 23.196 256.346 23.884C256.89 24.572 257.286 25.356 257.534 26.236C257.782 27.116 257.838 28.036 257.702 28.996H248.93C249.042 29.444 249.226 29.848 249.482 30.208C249.738 30.56 250.062 30.844 250.454 31.06C250.846 31.268 251.29 31.376 251.786 31.384C252.298 31.392 252.762 31.272 253.178 31.024C253.602 30.768 253.954 30.424 254.234 29.992L257.222 30.688C256.734 31.752 256.006 32.624 255.038 33.304C254.07 33.976 252.986 34.312 251.786 34.312ZM248.834 26.8H254.738C254.65 26.32 254.462 25.888 254.174 25.504C253.894 25.112 253.546 24.8 253.13 24.568C252.714 24.336 252.266 24.22 251.786 24.22C251.306 24.22 250.862 24.336 250.454 24.568C250.046 24.792 249.698 25.1 249.41 25.492C249.13 25.876 248.938 26.312 248.834 26.8ZM259.655 34V22H262.583V23.068C262.991 22.636 263.479 22.296 264.047 22.048C264.615 21.792 265.227 21.664 265.883 21.664C266.715 21.664 267.479 21.86 268.175 22.252C268.879 22.644 269.439 23.168 269.855 23.824C270.279 23.168 270.839 22.644 271.535 22.252C272.231 21.86 272.995 21.664 273.827 21.664C274.707 21.664 275.503 21.88 276.215 22.312C276.935 22.736 277.507 23.308 277.931 24.028C278.363 24.74 278.579 25.536 278.579 26.416V34H275.651V27.196C275.651 26.732 275.535 26.308 275.303 25.924C275.079 25.532 274.775 25.22 274.391 24.988C274.015 24.748 273.591 24.628 273.119 24.628C272.647 24.628 272.219 24.744 271.835 24.976C271.459 25.2 271.155 25.504 270.923 25.888C270.691 26.272 270.575 26.708 270.575 27.196V34H267.647V27.196C267.647 26.708 267.535 26.272 267.311 25.888C267.087 25.504 266.783 25.2 266.399 24.976C266.015 24.744 265.587 24.628 265.115 24.628C264.651 24.628 264.227 24.748 263.843 24.988C263.459 25.22 263.151 25.532 262.919 25.924C262.695 26.308 262.583 26.732 262.583 27.196V34H259.655ZM287.437 21.664C288.605 21.664 289.669 21.948 290.629 22.516C291.589 23.084 292.353 23.848 292.921 24.808C293.489 25.76 293.773 26.816 293.773 27.976C293.773 28.848 293.609 29.668 293.281 30.436C292.953 31.204 292.497 31.88 291.913 32.464C291.337 33.04 290.665 33.492 289.897 33.82C289.137 34.148 288.317 34.312 287.437 34.312C286.685 34.312 286.017 34.144 285.433 33.808C284.857 33.464 284.373 33.02 283.981 32.476V34H281.053V16H283.981V23.5C284.373 22.956 284.857 22.516 285.433 22.18C286.017 21.836 286.685 21.664 287.437 21.664ZM287.401 31.48C288.025 31.48 288.589 31.324 289.093 31.012C289.605 30.692 290.013 30.268 290.317 29.74C290.621 29.212 290.773 28.624 290.773 27.976C290.773 27.336 290.621 26.752 290.317 26.224C290.013 25.688 289.605 25.264 289.093 24.952C288.581 24.64 288.017 24.484 287.401 24.484C286.793 24.484 286.249 24.644 285.769 24.964C285.289 25.276 284.913 25.7 284.641 26.236C284.369 26.764 284.233 27.344 284.233 27.976C284.233 28.624 284.369 29.216 284.641 29.752C284.913 30.28 285.289 30.7 285.769 31.012C286.249 31.324 286.793 31.48 287.401 31.48ZM300.982 34.312C299.878 34.312 298.87 34.028 297.958 33.46C297.054 32.892 296.33 32.128 295.786 31.168C295.25 30.208 294.982 29.148 294.982 27.988C294.982 27.116 295.138 26.3 295.45 25.54C295.762 24.772 296.19 24.1 296.734 23.524C297.286 22.94 297.926 22.484 298.654 22.156C299.382 21.828 300.158 21.664 300.982 21.664C301.918 21.664 302.774 21.864 303.55 22.264C304.334 22.656 304.998 23.196 305.542 23.884C306.086 24.572 306.482 25.356 306.73 26.236C306.978 27.116 307.034 28.036 306.898 28.996H298.126C298.238 29.444 298.422 29.848 298.678 30.208C298.934 30.56 299.258 30.844 299.65 31.06C300.042 31.268 300.486 31.376 300.982 31.384C301.494 31.392 301.958 31.272 302.374 31.024C302.798 30.768 303.15 30.424 303.43 29.992L306.418 30.688C305.93 31.752 305.202 32.624 304.234 33.304C303.266 33.976 302.182 34.312 300.982 34.312ZM298.03 26.8H303.934C303.846 26.32 303.658 25.888 303.37 25.504C303.09 25.112 302.742 24.8 302.326 24.568C301.91 24.336 301.462 24.22 300.982 24.22C300.502 24.22 300.058 24.336 299.65 24.568C299.242 24.792 298.894 25.1 298.606 25.492C298.326 25.876 298.134 26.312 298.03 26.8ZM308.862 34L308.85 22H311.778L311.79 23.068C312.198 22.636 312.686 22.296 313.254 22.048C313.822 21.792 314.434 21.664 315.09 21.664C315.53 21.664 315.97 21.728 316.41 21.856L315.258 24.808C314.954 24.688 314.65 24.628 314.346 24.628C313.874 24.628 313.442 24.744 313.05 24.976C312.666 25.2 312.358 25.508 312.126 25.9C311.902 26.284 311.79 26.712 311.79 27.184V34H308.862ZM323.37 34V31.384C323.89 30.992 324.506 30.508 325.218 29.932C325.93 29.348 326.662 28.72 327.414 28.048C328.166 27.368 328.862 26.688 329.502 26.008C330.142 25.328 330.662 24.68 331.062 24.064C331.47 23.448 331.674 22.92 331.674 22.48C331.674 21.992 331.554 21.548 331.314 21.148C331.074 20.74 330.754 20.416 330.354 20.176C329.962 19.936 329.522 19.816 329.034 19.816C328.546 19.816 328.102 19.936 327.702 20.176C327.302 20.416 326.982 20.74 326.742 21.148C326.502 21.548 326.382 21.992 326.382 22.48H323.454C323.454 21.424 323.71 20.476 324.222 19.636C324.734 18.788 325.41 18.12 326.25 17.632C327.098 17.136 328.026 16.888 329.034 16.888C330.058 16.888 330.99 17.14 331.83 17.644C332.67 18.14 333.342 18.812 333.846 19.66C334.35 20.508 334.602 21.448 334.602 22.48C334.602 23.024 334.502 23.572 334.302 24.124C334.102 24.676 333.822 25.232 333.462 25.792C333.102 26.352 332.678 26.92 332.19 27.496C331.702 28.064 331.162 28.648 330.57 29.248C329.986 29.84 329.37 30.448 328.722 31.072H334.686V34H323.37ZM342.772 34.312C341.796 34.312 340.908 34.088 340.108 33.64C339.308 33.184 338.616 32.556 338.032 31.756C337.456 30.956 337.012 30.032 336.7 28.984C336.388 27.928 336.232 26.8 336.232 25.6C336.232 24.4 336.388 23.276 336.7 22.228C337.012 21.172 337.456 20.244 338.032 19.444C338.616 18.644 339.308 18.02 340.108 17.572C340.908 17.116 341.796 16.888 342.772 16.888C343.748 16.888 344.636 17.116 345.436 17.572C346.236 18.02 346.92 18.644 347.488 19.444C348.064 20.244 348.508 21.172 348.82 22.228C349.14 23.276 349.3 24.4 349.3 25.6C349.3 26.8 349.14 27.928 348.82 28.984C348.508 30.032 348.064 30.956 347.488 31.756C346.92 32.556 346.236 33.184 345.436 33.64C344.636 34.088 343.748 34.312 342.772 34.312ZM342.772 31.384C343.628 31.384 344.336 31.112 344.896 30.568C345.456 30.024 345.872 29.312 346.144 28.432C346.416 27.552 346.552 26.608 346.552 25.6C346.552 24.536 346.408 23.568 346.12 22.696C345.832 21.816 345.408 21.116 344.848 20.596C344.288 20.076 343.596 19.816 342.772 19.816C342.124 19.816 341.56 19.976 341.08 20.296C340.608 20.608 340.216 21.036 339.904 21.58C339.592 22.124 339.36 22.744 339.208 23.44C339.056 24.128 338.98 24.848 338.98 25.6C338.98 26.6 339.116 27.544 339.388 28.432C339.668 29.312 340.088 30.024 340.648 30.568C341.216 31.112 341.924 31.384 342.772 31.384ZM350.98 34V31.384C351.5 30.992 352.116 30.508 352.828 29.932C353.54 29.348 354.272 28.72 355.024 28.048C355.776 27.368 356.472 26.688 357.112 26.008C357.752 25.328 358.272 24.68 358.672 24.064C359.08 23.448 359.284 22.92 359.284 22.48C359.284 21.992 359.164 21.548 358.924 21.148C358.684 20.74 358.364 20.416 357.964 20.176C357.572 19.936 357.132 19.816 356.644 19.816C356.156 19.816 355.712 19.936 355.312 20.176C354.912 20.416 354.592 20.74 354.352 21.148C354.112 21.548 353.992 21.992 353.992 22.48H351.064C351.064 21.424 351.32 20.476 351.832 19.636C352.344 18.788 353.02 18.12 353.86 17.632C354.708 17.136 355.636 16.888 356.644 16.888C357.668 16.888 358.6 17.14 359.44 17.644C360.28 18.14 360.952 18.812 361.456 19.66C361.96 20.508 362.212 21.448 362.212 22.48C362.212 23.024 362.112 23.572 361.912 24.124C361.712 24.676 361.432 25.232 361.072 25.792C360.712 26.352 360.288 26.92 359.8 27.496C359.312 28.064 358.772 28.648 358.18 29.248C357.596 29.84 356.98 30.448 356.332 31.072H362.296V34H350.98ZM370.33 34.312C369.25 34.312 368.274 34.052 367.402 33.532C366.53 33.004 365.838 32.304 365.326 31.432C364.822 30.56 364.57 29.604 364.57 28.564H367.498C367.498 29.084 367.626 29.56 367.882 29.992C368.138 30.416 368.478 30.756 368.902 31.012C369.334 31.26 369.81 31.384 370.33 31.384C370.85 31.384 371.322 31.26 371.746 31.012C372.17 30.756 372.51 30.416 372.766 29.992C373.022 29.56 373.15 29.084 373.15 28.564C373.15 28.044 373.038 27.568 372.814 27.136C372.598 26.696 372.242 26.348 371.746 26.092C371.258 25.828 370.61 25.696 369.802 25.696H365.482L367.258 17.2H375.514V20.128H369.634L369.094 22.768L370.282 22.78C371.418 22.82 372.422 23.096 373.294 23.608C374.166 24.12 374.846 24.808 375.334 25.672C375.83 26.528 376.078 27.492 376.078 28.564C376.078 29.348 375.93 30.088 375.634 30.784C375.338 31.48 374.926 32.092 374.398 32.62C373.87 33.148 373.258 33.564 372.562 33.868C371.874 34.164 371.13 34.312 370.33 34.312Z" fill="white"/>
<path d="M579.5 50.5V542C579.5 547.247 575.247 551.5 570 551.5H10C4.7533 551.5 0.5 547.247 0.5 542V50.5H579.5Z" stroke="#808080"/>
<path d="M543 32L549 26L543 20" stroke="white" stroke-width="2" stroke-linecap="round" stroke-linejoin="round"/>
<path d="M38 19L32 25L38 31" stroke="white" stroke-width="2" stroke-linecap="round" stroke-linejoin="round"/>
<path d="M30.6431 103L33.9071 86.2H36.3311L40.4231 96.964L44.5151 86.2H46.9391L50.2031 103H47.2151L45.1991 92.608L41.4191 102.616H39.4151L35.6351 92.608L33.6311 103H30.6431ZM57.0872 103.312C55.9832 103.312 54.9752 103.028 54.0632 102.46C53.1592 101.892 52.4352 101.132 51.8912 100.18C51.3552 99.22 51.0872 98.16 51.0872 97C51.0872 96.12 51.2432 95.3 51.5552 94.54C51.8672 93.772 52.2952 93.1 52.8392 92.524C53.3912 91.94 54.0312 91.484 54.7592 91.156C55.4872 90.828 56.2632 90.664 57.0872 90.664C58.1912 90.664 59.1952 90.948 60.0992 91.516C61.0112 92.084 61.7352 92.848 62.2712 93.808C62.8152 94.768 63.0872 95.832 63.0872 97C63.0872 97.872 62.9312 98.688 62.6192 99.448C62.3072 100.208 61.8752 100.88 61.3232 101.464C60.7792 102.04 60.1432 102.492 59.4152 102.82C58.6952 103.148 57.9192 103.312 57.0872 103.312ZM57.0872 100.384C57.6712 100.384 58.1952 100.228 58.6592 99.916C59.1232 99.604 59.4872 99.192 59.7512 98.68C60.0232 98.168 60.1592 97.608 60.1592 97C60.1592 96.376 60.0192 95.808 59.7392 95.296C59.4672 94.776 59.0952 94.364 58.6232 94.06C58.1592 93.748 57.6472 93.592 57.0872 93.592C56.5112 93.592 55.9912 93.748 55.5272 94.06C55.0632 94.372 54.6952 94.788 54.4232 95.308C54.1512 95.828 54.0152 96.392 54.0152 97C54.0152 97.632 54.1552 98.204 54.4352 98.716C54.7152 99.228 55.0872 99.636 55.5512 99.94C56.0232 100.236 56.5352 100.384 57.0872 100.384Z" fill="white"/>
<path d="M131.371 86.2V89.128H126.235V103H123.307V89.128H118.171V86.2H131.371ZM131.835 98.56V91H134.763V97.792C134.763 98.264 134.879 98.696 135.111 99.088C135.343 99.472 135.651 99.78 136.035 100.012C136.427 100.236 136.855 100.348 137.319 100.348C137.799 100.348 138.231 100.236 138.615 100.012C138.999 99.78 139.307 99.472 139.539 99.088C139.771 98.696 139.887 98.264 139.887 97.792V91H142.815L142.827 103H139.899L139.887 101.908C139.471 102.34 138.979 102.684 138.411 102.94C137.843 103.188 137.235 103.312 136.587 103.312C135.715 103.312 134.919 103.1 134.199 102.676C133.479 102.244 132.903 101.672 132.471 100.96C132.047 100.24 131.835 99.44 131.835 98.56Z" fill="white"/>
<path d="M202.393 103L198.097 86.2H201.121L204.049 97.684L206.977 86.2H209.653L212.581 97.684L215.497 86.2H218.521L214.249 103H210.925L208.309 92.824L205.729 103H202.393ZM224.165 103.312C223.061 103.312 222.053 103.028 221.141 102.46C220.237 101.892 219.513 101.128 218.969 100.168C218.433 99.208 218.165 98.148 218.165 96.988C218.165 96.116 218.321 95.3 218.633 94.54C218.945 93.772 219.373 93.1 219.917 92.524C220.469 91.94 221.109 91.484 221.837 91.156C222.565 90.828 223.341 90.664 224.165 90.664C225.101 90.664 225.957 90.864 226.733 91.264C227.517 91.656 228.181 92.196 228.725 92.884C229.269 93.572 229.665 94.356 229.913 95.236C230.161 96.116 230.217 97.036 230.081 97.996H221.309C221.421 98.444 221.605 98.848 221.861 99.208C222.117 99.56 222.441 99.844 222.833 100.06C223.225 100.268 223.669 100.376 224.165 100.384C224.677 100.392 225.141 100.272 225.557 100.024C225.981 99.768 226.333 99.424 226.613 98.992L229.601 99.688C229.113 100.752 228.385 101.624 227.417 102.304C226.449 102.976 225.365 103.312 224.165 103.312ZM221.213 95.8H227.117C227.029 95.32 226.841 94.888 226.553 94.504C226.273 94.112 225.925 93.8 225.509 93.568C225.093 93.336 224.645 93.22 224.165 93.22C223.685 93.22 223.241 93.336 222.833 93.568C222.425 93.792 222.077 94.1 221.789 94.492C221.509 94.876 221.317 95.312 221.213 95.8Z" fill="white"/>
<path d="M297.41 86.2V89.128H292.274V103H289.346V89.128H284.21V86.2H297.41ZM310.799 95.416V103H307.871V96.184C307.871 95.712 307.755 95.284 307.523 94.9C307.291 94.508 306.979 94.2 306.587 93.976C306.203 93.744 305.775 93.628 305.303 93.628C304.831 93.628 304.399 93.744 304.007 93.976C303.623 94.2 303.315 94.508 303.083 94.9C302.859 95.284 302.747 95.712 302.747 96.184V103H299.819L299.807 85H302.735L302.747 92.068C303.155 91.636 303.643 91.296 304.211 91.048C304.779 90.792 305.391 90.664 306.047 90.664C306.919 90.664 307.715 90.88 308.435 91.312C309.155 91.736 309.727 92.308 310.151 93.028C310.583 93.74 310.799 94.536 310.799 95.416Z" fill="white"/>
<path d="M366.792 103V86.2H376.716V89.128H369.72V92.536H375.564V95.464H369.72V103H366.792ZM377.866 103L377.854 91H380.782L380.794 92.068C381.202 91.636 381.69 91.296 382.258 91.048C382.826 90.792 383.438 90.664 384.094 90.664C384.534 90.664 384.974 90.728 385.414 90.856L384.262 93.808C383.958 93.688 383.654 93.628 383.35 93.628C382.878 93.628 382.446 93.744 382.054 93.976C381.67 94.2 381.362 94.508 381.13 94.9C380.906 95.284 380.794 95.712 380.794 96.184V103H377.866Z" fill="white"/>
<path d="M447.504 103.312C446.576 103.312 445.684 103.168 444.828 102.88C443.98 102.584 443.236 102.164 442.596 101.62C441.956 101.068 441.496 100.408 441.216 99.64L443.964 98.632C444.076 98.952 444.304 99.244 444.648 99.508C444.992 99.772 445.412 99.984 445.908 100.144C446.404 100.304 446.936 100.384 447.504 100.384C448.088 100.384 448.632 100.296 449.136 100.12C449.648 99.936 450.06 99.684 450.372 99.364C450.684 99.036 450.84 98.656 450.84 98.224C450.84 97.784 450.676 97.424 450.348 97.144C450.02 96.856 449.6 96.628 449.088 96.46C448.576 96.292 448.048 96.164 447.504 96.076C446.312 95.892 445.244 95.608 444.3 95.224C443.356 94.84 442.608 94.308 442.056 93.628C441.512 92.948 441.24 92.068 441.24 90.988C441.24 89.972 441.532 89.084 442.116 88.324C442.7 87.564 443.468 86.972 444.42 86.548C445.372 86.124 446.4 85.912 447.504 85.912C448.424 85.912 449.312 86.056 450.168 86.344C451.024 86.632 451.772 87.052 452.412 87.604C453.06 88.156 453.524 88.82 453.804 89.596L451.044 90.592C450.932 90.272 450.704 89.98 450.36 89.716C450.016 89.452 449.596 89.244 449.1 89.092C448.604 88.932 448.072 88.852 447.504 88.852C446.936 88.844 446.396 88.936 445.884 89.128C445.38 89.312 444.968 89.564 444.648 89.884C444.328 90.204 444.168 90.572 444.168 90.988C444.168 91.524 444.316 91.928 444.612 92.2C444.916 92.472 445.32 92.672 445.824 92.8C446.328 92.92 446.888 93.032 447.504 93.136C448.624 93.312 449.66 93.608 450.612 94.024C451.564 94.44 452.328 94.996 452.904 95.692C453.48 96.38 453.768 97.224 453.768 98.224C453.768 99.24 453.48 100.132 452.904 100.9C452.328 101.66 451.564 102.252 450.612 102.676C449.66 103.1 448.624 103.312 447.504 103.312ZM465.105 91H468.033V103H465.105L464.973 101.512C464.645 102.048 464.209 102.484 463.665 102.82C463.129 103.148 462.493 103.312 461.757 103.312C460.869 103.312 460.037 103.144 459.261 102.808C458.485 102.472 457.801 102.008 457.209 101.416C456.625 100.824 456.165 100.14 455.829 99.364C455.501 98.588 455.337 97.756 455.337 96.868C455.337 96.012 455.493 95.208 455.805 94.456C456.125 93.704 456.569 93.044 457.137 92.476C457.705 91.908 458.361 91.464 459.105 91.144C459.849 90.824 460.649 90.664 461.505 90.664C462.297 90.664 463.005 90.84 463.629 91.192C464.261 91.544 464.797 91.992 465.237 92.536L465.105 91ZM461.685 100.492C462.309 100.492 462.861 100.336 463.341 100.024C463.821 99.712 464.197 99.292 464.469 98.764C464.741 98.228 464.877 97.64 464.877 97C464.877 96.352 464.741 95.764 464.469 95.236C464.197 94.7 463.817 94.276 463.329 93.964C462.849 93.652 462.301 93.496 461.685 93.496C461.069 93.496 460.505 93.656 459.993 93.976C459.489 94.288 459.085 94.708 458.781 95.236C458.485 95.764 458.337 96.352 458.337 97C458.337 97.648 458.489 98.236 458.793 98.764C459.097 99.292 459.501 99.712 460.005 100.024C460.517 100.336 461.077 100.492 461.685 100.492Z" fill="white"/>
<path d="M531.5 103.312C530.572 103.312 529.68 103.168 528.824 102.88C527.976 102.584 527.232 102.164 526.592 101.62C525.952 101.068 525.492 100.408 525.212 99.64L527.96 98.632C528.072 98.952 528.3 99.244 528.644 99.508C528.988 99.772 529.408 99.984 529.904 100.144C530.4 100.304 530.932 100.384 531.5 100.384C532.084 100.384 532.628 100.296 533.132 100.12C533.644 99.936 534.056 99.684 534.368 99.364C534.68 99.036 534.836 98.656 534.836 98.224C534.836 97.784 534.672 97.424 534.344 97.144C534.016 96.856 533.596 96.628 533.084 96.46C532.572 96.292 532.044 96.164 531.5 96.076C530.308 95.892 529.24 95.608 528.296 95.224C527.352 94.84 526.604 94.308 526.052 93.628C525.508 92.948 525.236 92.068 525.236 90.988C525.236 89.972 525.528 89.084 526.112 88.324C526.696 87.564 527.464 86.972 528.416 86.548C529.368 86.124 530.396 85.912 531.5 85.912C532.42 85.912 533.308 86.056 534.164 86.344C535.02 86.632 535.768 87.052 536.408 87.604C537.056 88.156 537.52 88.82 537.8 89.596L535.04 90.592C534.928 90.272 534.7 89.98 534.356 89.716C534.012 89.452 533.592 89.244 533.096 89.092C532.6 88.932 532.068 88.852 531.5 88.852C530.932 88.844 530.392 88.936 529.88 89.128C529.376 89.312 528.964 89.564 528.644 89.884C528.324 90.204 528.164 90.572 528.164 90.988C528.164 91.524 528.312 91.928 528.608 92.2C528.912 92.472 529.316 92.672 529.82 92.8C530.324 92.92 530.884 93.032 531.5 93.136C532.62 93.312 533.656 93.608 534.608 94.024C535.56 94.44 536.324 94.996 536.9 95.692C537.476 96.38 537.764 97.224 537.764 98.224C537.764 99.24 537.476 100.132 536.9 100.9C536.324 101.66 535.56 102.252 534.608 102.676C533.656 103.1 532.62 103.312 531.5 103.312Z" fill="white"/>
<path d="M525.105 186V183.384C525.625 182.992 526.241 182.508 526.953 181.932C527.665 181.348 528.397 180.72 529.149 180.048C529.901 179.368 530.597 178.688 531.237 178.008C531.877 177.328 532.397 176.68 532.797 176.064C533.205 175.448 533.409 174.92 533.409 174.48C533.409 173.992 533.289 173.548 533.049 173.148C532.809 172.74 532.489 172.416 532.089 172.176C531.697 171.936 531.257 171.816 530.769 171.816C530.281 171.816 529.837 171.936 529.437 172.176C529.037 172.416 528.717 172.74 528.477 173.148C528.237 173.548 528.117 173.992 528.117 174.48H525.189C525.189 173.424 525.445 172.476 525.957 171.636C526.469 170.788 527.145 170.12 527.985 169.632C528.833 169.136 529.761 168.888 530.769 168.888C531.793 168.888 532.725 169.14 533.565 169.644C534.405 170.14 535.077 170.812 535.581 171.66C536.085 172.508 536.337 173.448 536.337 174.48C536.337 175.024 536.237 175.572 536.037 176.124C535.837 176.676 535.557 177.232 535.197 177.792C534.837 178.352 534.413 178.92 533.925 179.496C533.437 180.064 532.897 180.648 532.305 181.248C531.721 181.84 531.105 182.448 530.457 183.072H536.421V186H525.105Z" fill="white"/>
<path d="M454.111 186V172.128H451.999L452.791 169.2H457.039V186H454.111Z" fill="white"/>
<path d="M132.163 269V264.932H125.011V261.992L131.479 252.2H135.091V262.004H136.507V264.932H135.091V269H132.163ZM128.407 261.992L132.163 262.004L132.151 256.196L128.407 261.992Z" fill="white"/>
<path d="M213.709 269.312C212.629 269.312 211.653 269.052 210.781 268.532C209.909 268.004 209.217 267.304 208.705 266.432C208.201 265.56 207.949 264.604 207.949 263.564H210.877C210.877 264.084 211.005 264.56 211.261 264.992C211.517 265.416 211.857 265.756 212.281 266.012C212.713 266.26 213.189 266.384 213.709 266.384C214.229 266.384 214.701 266.26 215.125 266.012C215.549 265.756 215.889 265.416 216.145 264.992C216.401 264.56 216.529 264.084 216.529 263.564C216.529 263.044 216.417 262.568 216.193 262.136C215.977 261.696 215.621 261.348 215.125 261.092C214.637 260.828 213.989 260.696 213.181 260.696H208.861L210.637 252.2H218.893V255.128H213.013L212.473 257.768L213.661 257.78C214.797 257.82 215.801 258.096 216.673 258.608C217.545 259.12 218.225 259.808 218.713 260.672C219.209 261.528 219.457 262.492 219.457 263.564C219.457 264.348 219.309 265.088 219.013 265.784C218.717 266.48 218.305 267.092 217.777 267.62C217.249 268.148 216.637 268.564 215.941 268.868C215.253 269.164 214.509 269.312 213.709 269.312Z" fill="white"/>
<path d="M297.918 269.312C296.846 269.312 295.862 269.044 294.966 268.508C294.07 267.972 293.354 267.256 292.818 266.36C292.282 265.464 292.014 264.472 292.014 263.384C292.014 262.824 292.078 262.304 292.206 261.824C292.342 261.344 292.55 260.86 292.83 260.372L297.534 252.2H300.93L297.774 257.66C298.422 257.612 299.046 257.668 299.646 257.828C300.246 257.988 300.802 258.24 301.314 258.584C301.826 258.928 302.274 259.344 302.658 259.832C303.042 260.32 303.338 260.864 303.546 261.464C303.762 262.064 303.87 262.704 303.87 263.384C303.87 264.2 303.714 264.964 303.402 265.676C303.098 266.388 302.674 267.02 302.13 267.572C301.586 268.116 300.954 268.544 300.234 268.856C299.514 269.16 298.742 269.312 297.918 269.312ZM297.918 266.384C298.502 266.384 299.022 266.244 299.478 265.964C299.934 265.676 300.29 265.304 300.546 264.848C300.81 264.392 300.942 263.908 300.942 263.396C300.942 262.844 300.81 262.34 300.546 261.884C300.282 261.428 299.922 261.064 299.466 260.792C299.018 260.52 298.51 260.384 297.942 260.384C297.358 260.384 296.838 260.528 296.382 260.816C295.934 261.096 295.582 261.464 295.326 261.92C295.07 262.376 294.942 262.868 294.942 263.396C294.942 263.964 295.082 264.472 295.362 264.92C295.642 265.368 296.006 265.724 296.454 265.988C296.91 266.252 297.398 266.384 297.918 266.384Z" fill="white"/>
<path d="M369.722 269L377.726 255.128H368.882V252.2H381.122V255.128L373.094 269H369.722Z" fill="white"/>
<path d="M454.989 269.312C453.957 269.312 453.021 269.076 452.181 268.604C451.341 268.132 450.669 267.5 450.165 266.708C449.669 265.908 449.421 265.02 449.421 264.044C449.421 263.276 449.593 262.556 449.937 261.884C450.289 261.204 450.761 260.632 451.353 260.168C450.889 259.744 450.509 259.244 450.213 258.668C449.925 258.084 449.781 257.46 449.781 256.796C449.781 255.892 450.017 255.068 450.489 254.324C450.961 253.58 451.589 252.988 452.373 252.548C453.165 252.108 454.037 251.888 454.989 251.888C455.949 251.888 456.821 252.108 457.605 252.548C458.389 252.988 459.017 253.58 459.489 254.324C459.961 255.068 460.197 255.892 460.197 256.796C460.197 257.46 460.053 258.084 459.765 258.668C459.485 259.244 459.105 259.744 458.625 260.168C459.233 260.632 459.709 261.204 460.053 261.884C460.405 262.556 460.581 263.276 460.581 264.044C460.581 265.012 460.329 265.896 459.825 266.696C459.329 267.488 458.657 268.124 457.809 268.604C456.961 269.076 456.021 269.312 454.989 269.312ZM454.989 266.384C455.453 266.384 455.873 266.28 456.249 266.072C456.625 265.856 456.925 265.572 457.149 265.22C457.373 264.868 457.485 264.476 457.485 264.044C457.485 263.612 457.373 263.22 457.149 262.868C456.925 262.516 456.625 262.236 456.249 262.028C455.873 261.812 455.453 261.704 454.989 261.704C454.533 261.704 454.117 261.812 453.741 262.028C453.365 262.236 453.061 262.516 452.829 262.868C452.605 263.22 452.493 263.612 452.493 264.044C452.493 264.476 452.605 264.868 452.829 265.22C453.061 265.572 453.365 265.856 453.741 266.072C454.117 266.28 454.533 266.384 454.989 266.384ZM454.989 258.776C455.381 258.776 455.737 258.688 456.057 258.512C456.377 258.328 456.629 258.088 456.813 257.792C457.005 257.496 457.101 257.164 457.101 256.796C457.101 256.428 457.005 256.096 456.813 255.8C456.629 255.504 456.377 255.268 456.057 255.092C455.737 254.908 455.381 254.816 454.989 254.816C454.605 254.816 454.253 254.908 453.933 255.092C453.613 255.268 453.357 255.504 453.165 255.8C452.973 256.096 452.877 256.428 452.877 256.796C452.877 257.164 452.973 257.496 453.165 257.792C453.357 258.088 453.613 258.328 453.933 258.512C454.253 258.688 454.605 258.776 454.989 258.776Z" fill="white"/>
<path d="M528.894 269L532.122 263.42C531.33 263.468 530.574 263.36 529.854 263.096C529.142 262.832 528.506 262.44 527.946 261.92C527.386 261.4 526.942 260.784 526.614 260.072C526.294 259.36 526.134 258.588 526.134 257.756C526.134 256.948 526.286 256.192 526.59 255.488C526.894 254.776 527.314 254.152 527.85 253.616C528.394 253.072 529.018 252.648 529.722 252.344C530.434 252.04 531.198 251.888 532.014 251.888C533.078 251.888 534.05 252.152 534.93 252.68C535.818 253.208 536.526 253.916 537.054 254.804C537.59 255.692 537.858 256.676 537.858 257.756C537.858 258.292 537.79 258.8 537.654 259.28C537.526 259.752 537.322 260.232 537.042 260.72L532.278 269H528.894ZM531.99 260.696C532.566 260.696 533.074 260.556 533.514 260.276C533.962 259.996 534.31 259.632 534.558 259.184C534.806 258.736 534.93 258.256 534.93 257.744C534.93 257.184 534.794 256.684 534.522 256.244C534.25 255.796 533.89 255.448 533.442 255.2C532.994 254.944 532.518 254.816 532.014 254.816C531.438 254.816 530.926 254.956 530.478 255.236C530.038 255.508 529.69 255.868 529.434 256.316C529.178 256.764 529.05 257.24 529.05 257.744C529.05 258.28 529.178 258.772 529.434 259.22C529.698 259.668 530.05 260.028 530.49 260.3C530.938 260.564 531.438 260.696 531.99 260.696Z" fill="white"/>
<path d="M46.4914 269.312C45.4754 269.312 44.5594 269.072 43.7434 268.592C42.9274 268.112 42.2794 267.468 41.7994 266.66C41.3194 265.844 41.0794 264.94 41.0794 263.948H44.0074C44.0074 264.396 44.1114 264.804 44.3194 265.172C44.5354 265.54 44.8314 265.836 45.2074 266.06C45.5834 266.276 46.0114 266.384 46.4914 266.384C46.9314 266.384 47.3394 266.276 47.7154 266.06C48.0994 265.836 48.4074 265.54 48.6394 265.172C48.8714 264.804 48.9874 264.396 48.9874 263.948C48.9874 263.364 48.8314 262.88 48.5194 262.496C48.2074 262.104 47.7714 261.812 47.2114 261.62C46.6594 261.428 46.0154 261.332 45.2794 261.332V259.076C46.2714 259.076 47.0554 258.888 47.6314 258.512C48.2154 258.136 48.5074 257.584 48.5074 256.856C48.5074 256.48 48.4114 256.136 48.2194 255.824C48.0274 255.512 47.7714 255.264 47.4514 255.08C47.1394 254.888 46.7954 254.792 46.4194 254.792C46.0354 254.792 45.6634 254.888 45.3034 255.08C44.9434 255.264 44.6474 255.512 44.4154 255.824C44.1914 256.136 44.0794 256.48 44.0794 256.856H41.1514C41.1514 256.168 41.2914 255.524 41.5714 254.924C41.8514 254.316 42.2354 253.784 42.7234 253.328C43.2194 252.872 43.7794 252.516 44.4034 252.26C45.0354 251.996 45.6954 251.864 46.3834 251.864C47.2874 251.864 48.1234 252.088 48.8914 252.536C49.6594 252.984 50.2754 253.584 50.7394 254.336C51.2034 255.088 51.4354 255.928 51.4354 256.856C51.4354 257.504 51.2834 258.14 50.9794 258.764C50.6754 259.388 50.2434 259.828 49.6834 260.084C50.1714 260.26 50.5794 260.556 50.9074 260.972C51.2354 261.38 51.4834 261.848 51.6514 262.376C51.8274 262.896 51.9154 263.42 51.9154 263.948C51.9154 264.932 51.6674 265.832 51.1714 266.648C50.6754 267.456 50.0154 268.104 49.1914 268.592C48.3754 269.072 47.4754 269.312 46.4914 269.312Z" fill="white"/>
<rect x="425" y="322" width="60" height="45" fill="black"/>
<path d="M127.15 352V338.128H125.038L125.83 335.2H130.078V352H127.15ZM135.072 352V338.128H132.96L133.752 335.2H138V352H135.072Z" fill="white"/>
<path d="M207.256 352V338.128H205.144L205.936 335.2H210.184V352H207.256ZM213.065 352V349.384C213.585 348.992 214.201 348.508 214.913 347.932C215.625 347.348 216.357 346.72 217.109 346.048C217.861 345.368 218.557 344.688 219.197 344.008C219.837 343.328 220.357 342.68 220.757 342.064C221.165 341.448 221.369 340.92 221.369 340.48C221.369 339.992 221.249 339.548 221.009 339.148C220.769 338.74 220.449 338.416 220.049 338.176C219.657 337.936 219.217 337.816 218.729 337.816C218.241 337.816 217.797 337.936 217.397 338.176C216.997 338.416 216.677 338.74 216.437 339.148C216.197 339.548 216.077 339.992 216.077 340.48H213.149C213.149 339.424 213.405 338.476 213.917 337.636C214.429 336.788 215.105 336.12 215.945 335.632C216.793 335.136 217.721 334.888 218.729 334.888C219.753 334.888 220.685 335.14 221.525 335.644C222.365 336.14 223.037 336.812 223.541 337.66C224.045 338.508 224.297 339.448 224.297 340.48C224.297 341.024 224.197 341.572 223.997 342.124C223.797 342.676 223.517 343.232 223.157 343.792C222.797 344.352 222.373 344.92 221.885 345.496C221.397 346.064 220.857 346.648 220.265 347.248C219.681 347.84 219.065 348.448 218.417 349.072H224.381V352H213.065Z" fill="white"/>
<path d="M292.47 352V338.128H290.358L291.15 335.2H295.398V352H292.47ZM303.452 352.312C302.436 352.312 301.52 352.072 300.704 351.592C299.888 351.112 299.24 350.468 298.76 349.66C298.28 348.844 298.04 347.94 298.04 346.948H300.968C300.968 347.396 301.072 347.804 301.28 348.172C301.496 348.54 301.792 348.836 302.168 349.06C302.544 349.276 302.972 349.384 303.452 349.384C303.892 349.384 304.3 349.276 304.676 349.06C305.06 348.836 305.368 348.54 305.6 348.172C305.832 347.804 305.948 347.396 305.948 346.948C305.948 346.364 305.792 345.88 305.48 345.496C305.168 345.104 304.732 344.812 304.172 344.62C303.62 344.428 302.976 344.332 302.24 344.332V342.076C303.232 342.076 304.016 341.888 304.592 341.512C305.176 341.136 305.468 340.584 305.468 339.856C305.468 339.48 305.372 339.136 305.18 338.824C304.988 338.512 304.732 338.264 304.412 338.08C304.1 337.888 303.756 337.792 303.38 337.792C302.996 337.792 302.624 337.888 302.264 338.08C301.904 338.264 301.608 338.512 301.376 338.824C301.152 339.136 301.04 339.48 301.04 339.856H298.112C298.112 339.168 298.252 338.524 298.532 337.924C298.812 337.316 299.196 336.784 299.684 336.328C300.18 335.872 300.74 335.516 301.364 335.26C301.996 334.996 302.656 334.864 303.344 334.864C304.248 334.864 305.084 335.088 305.852 335.536C306.62 335.984 307.236 336.584 307.7 337.336C308.164 338.088 308.396 338.928 308.396 339.856C308.396 340.504 308.244 341.14 307.94 341.764C307.636 342.388 307.204 342.828 306.644 343.084C307.132 343.26 307.54 343.556 307.868 343.972C308.196 344.38 308.444 344.848 308.612 345.376C308.788 345.896 308.876 346.42 308.876 346.948C308.876 347.932 308.628 348.832 308.132 349.648C307.636 350.456 306.976 351.104 306.152 351.592C305.336 352.072 304.436 352.312 303.452 352.312Z" fill="white"/>
<path d="M368.162 352V338.128H366.05L366.842 335.2H371.09V352H368.162ZM381.124 352V347.932H373.972V344.992L380.44 335.2H384.052V345.004H385.468V347.932H384.052V352H381.124ZM377.368 344.992L381.124 345.004L381.112 339.196L377.368 344.992Z" fill="white"/>
<path d="M448.22 352V338.128H446.108L446.9 335.2H451.148V352H448.22ZM459.67 352.312C458.59 352.312 457.614 352.052 456.742 351.532C455.87 351.004 455.178 350.304 454.666 349.432C454.162 348.56 453.91 347.604 453.91 346.564H456.838C456.838 347.084 456.966 347.56 457.222 347.992C457.478 348.416 457.818 348.756 458.242 349.012C458.674 349.26 459.15 349.384 459.67 349.384C460.19 349.384 460.662 349.26 461.086 349.012C461.51 348.756 461.85 348.416 462.106 347.992C462.362 347.56 462.49 347.084 462.49 346.564C462.49 346.044 462.378 345.568 462.154 345.136C461.938 344.696 461.582 344.348 461.086 344.092C460.598 343.828 459.95 343.696 459.142 343.696H454.822L456.598 335.2H464.854V338.128H458.974L458.434 340.768L459.622 340.78C460.758 340.82 461.762 341.096 462.634 341.608C463.506 342.12 464.186 342.808 464.674 343.672C465.17 344.528 465.418 345.492 465.418 346.564C465.418 347.348 465.27 348.088 464.974 348.784C464.678 349.48 464.266 350.092 463.738 350.62C463.21 351.148 462.598 351.564 461.902 351.868C461.214 352.164 460.47 352.312 459.67 352.312Z" fill="#404040"/>
<path d="M525.525 352V338.128H523.413L524.205 335.2H528.453V352H525.525ZM536.879 352.312C535.807 352.312 534.823 352.044 533.927 351.508C533.031 350.972 532.315 350.256 531.779 349.36C531.243 348.464 530.975 347.472 530.975 346.384C530.975 345.824 531.039 345.304 531.167 344.824C531.303 344.344 531.511 343.86 531.791 343.372L536.495 335.2H539.891L536.735 340.66C537.383 340.612 538.007 340.668 538.607 340.828C539.207 340.988 539.763 341.24 540.275 341.584C540.787 341.928 541.235 342.344 541.619 342.832C542.003 343.32 542.299 343.864 542.507 344.464C542.723 345.064 542.831 345.704 542.831 346.384C542.831 347.2 542.675 347.964 542.363 348.676C542.059 349.388 541.635 350.02 541.091 350.572C540.547 351.116 539.915 351.544 539.195 351.856C538.475 352.16 537.703 352.312 536.879 352.312ZM536.879 349.384C537.463 349.384 537.983 349.244 538.439 348.964C538.895 348.676 539.251 348.304 539.507 347.848C539.771 347.392 539.903 346.908 539.903 346.396C539.903 345.844 539.771 345.34 539.507 344.884C539.243 344.428 538.883 344.064 538.427 343.792C537.979 343.52 537.471 343.384 536.903 343.384C536.319 343.384 535.799 343.528 535.343 343.816C534.895 344.096 534.543 344.464 534.287 344.92C534.031 345.376 533.903 345.868 533.903 346.396C533.903 346.964 534.043 347.472 534.323 347.92C534.603 348.368 534.967 348.724 535.415 348.988C535.871 349.252 536.359 349.384 536.879 349.384Z" fill="white"/>
<path d="M39.3572 352V338.128H37.2452L38.0372 335.2H42.2852V352H39.3572ZM51.467 352.312C50.491 352.312 49.603 352.088 48.803 351.64C48.003 351.184 47.311 350.556 46.727 349.756C46.151 348.956 45.707 348.032 45.395 346.984C45.083 345.928 44.927 344.8 44.927 343.6C44.927 342.4 45.083 341.276 45.395 340.228C45.707 339.172 46.151 338.244 46.727 337.444C47.311 336.644 48.003 336.02 48.803 335.572C49.603 335.116 50.491 334.888 51.467 334.888C52.443 334.888 53.331 335.116 54.131 335.572C54.931 336.02 55.615 336.644 56.183 337.444C56.759 338.244 57.203 339.172 57.515 340.228C57.835 341.276 57.995 342.4 57.995 343.6C57.995 344.8 57.835 345.928 57.515 346.984C57.203 348.032 56.759 348.956 56.183 349.756C55.615 350.556 54.931 351.184 54.131 351.64C53.331 352.088 52.443 352.312 51.467 352.312ZM51.467 349.384C52.323 349.384 53.031 349.112 53.591 348.568C54.151 348.024 54.567 347.312 54.839 346.432C55.111 345.552 55.247 344.608 55.247 343.6C55.247 342.536 55.103 341.568 54.815 340.696C54.527 339.816 54.103 339.116 53.543 338.596C52.983 338.076 52.291 337.816 51.467 337.816C50.819 337.816 50.255 337.976 49.775 338.296C49.303 338.608 48.911 339.036 48.599 339.58C48.287 340.124 48.055 340.744 47.903 341.44C47.751 342.128 47.675 342.848 47.675 343.6C47.675 344.6 47.811 345.544 48.083 346.432C48.363 347.312 48.783 348.024 49.343 348.568C49.911 349.112 50.619 349.384 51.467 349.384Z" fill="white"/>
<path d="M127.072 435V421.128H124.96L125.752 418.2H130V435H127.072ZM138.45 435.312C137.418 435.312 136.482 435.076 135.642 434.604C134.802 434.132 134.13 433.5 133.626 432.708C133.13 431.908 132.882 431.02 132.882 430.044C132.882 429.276 133.054 428.556 133.398 427.884C133.75 427.204 134.222 426.632 134.814 426.168C134.35 425.744 133.97 425.244 133.674 424.668C133.386 424.084 133.242 423.46 133.242 422.796C133.242 421.892 133.478 421.068 133.95 420.324C134.422 419.58 135.05 418.988 135.834 418.548C136.626 418.108 137.498 417.888 138.45 417.888C139.41 417.888 140.282 418.108 141.066 418.548C141.85 418.988 142.478 419.58 142.95 420.324C143.422 421.068 143.658 421.892 143.658 422.796C143.658 423.46 143.514 424.084 143.226 424.668C142.946 425.244 142.566 425.744 142.086 426.168C142.694 426.632 143.17 427.204 143.514 427.884C143.866 428.556 144.042 429.276 144.042 430.044C144.042 431.012 143.79 431.896 143.286 432.696C142.79 433.488 142.118 434.124 141.27 434.604C140.422 435.076 139.482 435.312 138.45 435.312ZM138.45 432.384C138.914 432.384 139.334 432.28 139.71 432.072C140.086 431.856 140.386 431.572 140.61 431.22C140.834 430.868 140.946 430.476 140.946 430.044C140.946 429.612 140.834 429.22 140.61 428.868C140.386 428.516 140.086 428.236 139.71 428.028C139.334 427.812 138.914 427.704 138.45 427.704C137.994 427.704 137.578 427.812 137.202 428.028C136.826 428.236 136.522 428.516 136.29 428.868C136.066 429.22 135.954 429.612 135.954 430.044C135.954 430.476 136.066 430.868 136.29 431.22C136.522 431.572 136.826 431.856 137.202 432.072C137.578 432.28 137.994 432.384 138.45 432.384ZM138.45 424.776C138.842 424.776 139.198 424.688 139.518 424.512C139.838 424.328 140.09 424.088 140.274 423.792C140.466 423.496 140.562 423.164 140.562 422.796C140.562 422.428 140.466 422.096 140.274 421.8C140.09 421.504 139.838 421.268 139.518 421.092C139.198 420.908 138.842 420.816 138.45 420.816C138.066 420.816 137.714 420.908 137.394 421.092C137.074 421.268 136.818 421.504 136.626 421.8C136.434 422.096 136.338 422.428 136.338 422.796C136.338 423.164 136.434 423.496 136.626 423.792C136.818 424.088 137.074 424.328 137.394 424.512C137.714 424.688 138.066 424.776 138.45 424.776Z" fill="white"/>
<path d="M209.525 435V421.128H207.413L208.205 418.2H212.453V435H209.525ZM217.855 435L221.083 429.42C220.291 429.468 219.535 429.36 218.815 429.096C218.103 428.832 217.467 428.44 216.907 427.92C216.347 427.4 215.903 426.784 215.575 426.072C215.255 425.36 215.095 424.588 215.095 423.756C215.095 422.948 215.247 422.192 215.551 421.488C215.855 420.776 216.275 420.152 216.811 419.616C217.355 419.072 217.979 418.648 218.683 418.344C219.395 418.04 220.159 417.888 220.975 417.888C222.039 417.888 223.011 418.152 223.891 418.68C224.779 419.208 225.487 419.916 226.015 420.804C226.551 421.692 226.819 422.676 226.819 423.756C226.819 424.292 226.751 424.8 226.615 425.28C226.487 425.752 226.283 426.232 226.003 426.72L221.239 435H217.855ZM220.951 426.696C221.527 426.696 222.035 426.556 222.475 426.276C222.923 425.996 223.271 425.632 223.519 425.184C223.767 424.736 223.891 424.256 223.891 423.744C223.891 423.184 223.755 422.684 223.483 422.244C223.211 421.796 222.851 421.448 222.403 421.2C221.955 420.944 221.479 420.816 220.975 420.816C220.399 420.816 219.887 420.956 219.439 421.236C218.999 421.508 218.651 421.868 218.395 422.316C218.139 422.764 218.011 423.24 218.011 423.744C218.011 424.28 218.139 424.772 218.395 425.22C218.659 425.668 219.011 426.028 219.451 426.3C219.899 426.564 220.399 426.696 220.951 426.696Z" fill="white"/>
<path d="M288.155 435V432.384C288.675 431.992 289.291 431.508 290.003 430.932C290.715 430.348 291.447 429.72 292.199 429.048C292.951 428.368 293.647 427.688 294.287 427.008C294.927 426.328 295.447 425.68 295.847 425.064C296.255 424.448 296.459 423.92 296.459 423.48C296.459 422.992 296.339 422.548 296.099 422.148C295.859 421.74 295.539 421.416 295.139 421.176C294.747 420.936 294.307 420.816 293.819 420.816C293.331 420.816 292.887 420.936 292.487 421.176C292.087 421.416 291.767 421.74 291.527 422.148C291.287 422.548 291.167 422.992 291.167 423.48H288.239C288.239 422.424 288.495 421.476 289.007 420.636C289.519 419.788 290.195 419.12 291.035 418.632C291.883 418.136 292.811 417.888 293.819 417.888C294.843 417.888 295.775 418.14 296.615 418.644C297.455 419.14 298.127 419.812 298.631 420.66C299.135 421.508 299.387 422.448 299.387 423.48C299.387 424.024 299.287 424.572 299.087 425.124C298.887 425.676 298.607 426.232 298.247 426.792C297.887 427.352 297.463 427.92 296.975 428.496C296.487 429.064 295.947 429.648 295.355 430.248C294.771 430.84 294.155 431.448 293.507 432.072H299.471V435H288.155ZM307.557 435.312C306.581 435.312 305.693 435.088 304.893 434.64C304.093 434.184 303.401 433.556 302.817 432.756C302.241 431.956 301.797 431.032 301.485 429.984C301.173 428.928 301.017 427.8 301.017 426.6C301.017 425.4 301.173 424.276 301.485 423.228C301.797 422.172 302.241 421.244 302.817 420.444C303.401 419.644 304.093 419.02 304.893 418.572C305.693 418.116 306.581 417.888 307.557 417.888C308.533 417.888 309.421 418.116 310.221 418.572C311.021 419.02 311.705 419.644 312.273 420.444C312.849 421.244 313.293 422.172 313.605 423.228C313.925 424.276 314.085 425.4 314.085 426.6C314.085 427.8 313.925 428.928 313.605 429.984C313.293 431.032 312.849 431.956 312.273 432.756C311.705 433.556 311.021 434.184 310.221 434.64C309.421 435.088 308.533 435.312 307.557 435.312ZM307.557 432.384C308.413 432.384 309.121 432.112 309.681 431.568C310.241 431.024 310.657 430.312 310.929 429.432C311.201 428.552 311.337 427.608 311.337 426.6C311.337 425.536 311.193 424.568 310.905 423.696C310.617 422.816 310.193 422.116 309.633 421.596C309.073 421.076 308.381 420.816 307.557 420.816C306.909 420.816 306.345 420.976 305.865 421.296C305.393 421.608 305.001 422.036 304.689 422.58C304.377 423.124 304.145 423.744 303.993 424.44C303.841 425.128 303.765 425.848 303.765 426.6C303.765 427.6 303.901 428.544 304.173 429.432C304.453 430.312 304.873 431.024 305.433 431.568C306.001 432.112 306.709 432.384 307.557 432.384Z" fill="white"/>
<path d="M368.144 435V432.384C368.664 431.992 369.28 431.508 369.992 430.932C370.704 430.348 371.436 429.72 372.188 429.048C372.94 428.368 373.636 427.688 374.276 427.008C374.916 426.328 375.436 425.68 375.836 425.064C376.244 424.448 376.448 423.92 376.448 423.48C376.448 422.992 376.328 422.548 376.088 422.148C375.848 421.74 375.528 421.416 375.128 421.176C374.736 420.936 374.296 420.816 373.808 420.816C373.32 420.816 372.876 420.936 372.476 421.176C372.076 421.416 371.756 421.74 371.516 422.148C371.276 422.548 371.156 422.992 371.156 423.48H368.228C368.228 422.424 368.484 421.476 368.996 420.636C369.508 419.788 370.184 419.12 371.024 418.632C371.872 418.136 372.8 417.888 373.808 417.888C374.832 417.888 375.764 418.14 376.604 418.644C377.444 419.14 378.116 419.812 378.62 420.66C379.124 421.508 379.376 422.448 379.376 423.48C379.376 424.024 379.276 424.572 379.076 425.124C378.876 425.676 378.596 426.232 378.236 426.792C377.876 427.352 377.452 427.92 376.964 428.496C376.476 429.064 375.936 429.648 375.344 430.248C374.76 430.84 374.144 431.448 373.496 432.072H379.46V435H368.144ZM383.967 435V421.128H381.855L382.647 418.2H386.895V435H383.967Z" fill="white"/>
<path d="M445.249 435V432.384C445.769 431.992 446.385 431.508 447.097 430.932C447.809 430.348 448.541 429.72 449.293 429.048C450.045 428.368 450.741 427.688 451.381 427.008C452.021 426.328 452.541 425.68 452.941 425.064C453.349 424.448 453.553 423.92 453.553 423.48C453.553 422.992 453.433 422.548 453.193 422.148C452.953 421.74 452.633 421.416 452.233 421.176C451.841 420.936 451.401 420.816 450.913 420.816C450.425 420.816 449.981 420.936 449.581 421.176C449.181 421.416 448.861 421.74 448.621 422.148C448.381 422.548 448.261 422.992 448.261 423.48H445.333C445.333 422.424 445.589 421.476 446.101 420.636C446.613 419.788 447.289 419.12 448.129 418.632C448.977 418.136 449.905 417.888 450.913 417.888C451.937 417.888 452.869 418.14 453.709 418.644C454.549 419.14 455.221 419.812 455.725 420.66C456.229 421.508 456.481 422.448 456.481 423.48C456.481 424.024 456.381 424.572 456.181 425.124C455.981 425.676 455.701 426.232 455.341 426.792C454.981 427.352 454.557 427.92 454.069 428.496C453.581 429.064 453.041 429.648 452.449 430.248C451.865 430.84 451.249 431.448 450.601 432.072H456.565V435H445.249ZM458.96 435V432.384C459.48 431.992 460.096 431.508 460.808 430.932C461.52 430.348 462.252 429.72 463.004 429.048C463.756 428.368 464.452 427.688 465.092 427.008C465.732 426.328 466.252 425.68 466.652 425.064C467.06 424.448 467.264 423.92 467.264 423.48C467.264 422.992 467.144 422.548 466.904 422.148C466.664 421.74 466.344 421.416 465.944 421.176C465.552 420.936 465.112 420.816 464.624 420.816C464.136 420.816 463.692 420.936 463.292 421.176C462.892 421.416 462.572 421.74 462.332 422.148C462.092 422.548 461.972 422.992 461.972 423.48H459.044C459.044 422.424 459.3 421.476 459.812 420.636C460.324 419.788 461 419.12 461.84 418.632C462.688 418.136 463.616 417.888 464.624 417.888C465.648 417.888 466.58 418.14 467.42 418.644C468.26 419.14 468.932 419.812 469.436 420.66C469.94 421.508 470.192 422.448 470.192 423.48C470.192 424.024 470.092 424.572 469.892 425.124C469.692 425.676 469.412 426.232 469.052 426.792C468.692 427.352 468.268 427.92 467.78 428.496C467.292 429.064 466.752 429.648 466.16 430.248C465.576 430.84 464.96 431.448 464.312 432.072H470.276V435H458.96Z" fill="white"/>
<path d="M522.964 435V432.384C523.484 431.992 524.1 431.508 524.812 430.932C525.524 430.348 526.256 429.72 527.008 429.048C527.76 428.368 528.456 427.688 529.096 427.008C529.736 426.328 530.256 425.68 530.656 425.064C531.064 424.448 531.268 423.92 531.268 423.48C531.268 422.992 531.148 422.548 530.908 422.148C530.668 421.74 530.348 421.416 529.948 421.176C529.556 420.936 529.116 420.816 528.628 420.816C528.14 420.816 527.696 420.936 527.296 421.176C526.896 421.416 526.576 421.74 526.336 422.148C526.096 422.548 525.976 422.992 525.976 423.48H523.048C523.048 422.424 523.304 421.476 523.816 420.636C524.328 419.788 525.004 419.12 525.844 418.632C526.692 418.136 527.62 417.888 528.628 417.888C529.652 417.888 530.584 418.14 531.424 418.644C532.264 419.14 532.936 419.812 533.44 420.66C533.944 421.508 534.196 422.448 534.196 423.48C534.196 424.024 534.096 424.572 533.896 425.124C533.696 425.676 533.416 426.232 533.056 426.792C532.696 427.352 532.272 427.92 531.784 428.496C531.296 429.064 530.756 429.648 530.164 430.248C529.58 430.84 528.964 431.448 528.316 432.072H534.28V435H522.964ZM541.847 435.312C540.831 435.312 539.915 435.072 539.099 434.592C538.283 434.112 537.635 433.468 537.155 432.66C536.675 431.844 536.435 430.94 536.435 429.948H539.363C539.363 430.396 539.467 430.804 539.675 431.172C539.891 431.54 540.187 431.836 540.563 432.06C540.939 432.276 541.367 432.384 541.847 432.384C542.287 432.384 542.695 432.276 543.071 432.06C543.455 431.836 543.763 431.54 543.995 431.172C544.227 430.804 544.343 430.396 544.343 429.948C544.343 429.364 544.187 428.88 543.875 428.496C543.563 428.104 543.127 427.812 542.567 427.62C542.015 427.428 541.371 427.332 540.635 427.332V425.076C541.627 425.076 542.411 424.888 542.987 424.512C543.571 424.136 543.863 423.584 543.863 422.856C543.863 422.48 543.767 422.136 543.575 421.824C543.383 421.512 543.127 421.264 542.807 421.08C542.495 420.888 542.151 420.792 541.775 420.792C541.391 420.792 541.019 420.888 540.659 421.08C540.299 421.264 540.003 421.512 539.771 421.824C539.547 422.136 539.435 422.48 539.435 422.856H536.507C536.507 422.168 536.647 421.524 536.927 420.924C537.207 420.316 537.591 419.784 538.079 419.328C538.575 418.872 539.135 418.516 539.759 418.26C540.391 417.996 541.051 417.864 541.739 417.864C542.643 417.864 543.479 418.088 544.247 418.536C545.015 418.984 545.631 419.584 546.095 420.336C546.559 421.088 546.791 421.928 546.791 422.856C546.791 423.504 546.639 424.14 546.335 424.764C546.031 425.388 545.599 425.828 545.039 426.084C545.527 426.26 545.935 426.556 546.263 426.972C546.591 427.38 546.839 427.848 547.007 428.376C547.183 428.896 547.271 429.42 547.271 429.948C547.271 430.932 547.023 431.832 546.527 432.648C546.031 433.456 545.371 434.104 544.547 434.592C543.731 435.072 542.831 435.312 541.847 435.312Z" fill="white"/>
<path d="M41.5134 435V421.128H39.4014L40.1934 418.2H44.4414V435H41.5134ZM47.6833 435L55.6873 421.128H46.8433V418.2H59.0833V421.128L51.0553 435H47.6833Z" fill="white"/>
<rect x="346" y="487" width="60" height="45" fill="black"/>
<rect x="427" y="487" width="60" height="45" fill="black"/>
<path d="M119.214 518V515.384C119.734 514.992 120.35 514.508 121.062 513.932C121.774 513.348 122.506 512.72 123.258 512.048C124.01 511.368 124.706 510.688 125.346 510.008C125.986 509.328 126.506 508.68 126.906 508.064C127.314 507.448 127.518 506.92 127.518 506.48C127.518 505.992 127.398 505.548 127.158 505.148C126.918 504.74 126.598 504.416 126.198 504.176C125.806 503.936 125.366 503.816 124.878 503.816C124.39 503.816 123.946 503.936 123.546 504.176C123.146 504.416 122.826 504.74 122.586 505.148C122.346 505.548 122.226 505.992 122.226 506.48H119.298C119.298 505.424 119.554 504.476 120.066 503.636C120.578 502.788 121.254 502.12 122.094 501.632C122.942 501.136 123.87 500.888 124.878 500.888C125.902 500.888 126.834 501.14 127.674 501.644C128.514 502.14 129.186 502.812 129.69 503.66C130.194 504.508 130.446 505.448 130.446 506.48C130.446 507.024 130.346 507.572 130.146 508.124C129.946 508.676 129.666 509.232 129.306 509.792C128.946 510.352 128.522 510.92 128.034 511.496C127.546 512.064 127.006 512.648 126.414 513.248C125.83 513.84 125.214 514.448 124.566 515.072H130.53V518H119.214ZM138.565 518.312C137.485 518.312 136.509 518.052 135.637 517.532C134.765 517.004 134.073 516.304 133.561 515.432C133.057 514.56 132.805 513.604 132.805 512.564H135.733C135.733 513.084 135.861 513.56 136.117 513.992C136.373 514.416 136.713 514.756 137.137 515.012C137.569 515.26 138.045 515.384 138.565 515.384C139.085 515.384 139.557 515.26 139.981 515.012C140.405 514.756 140.745 514.416 141.001 513.992C141.257 513.56 141.385 513.084 141.385 512.564C141.385 512.044 141.273 511.568 141.049 511.136C140.833 510.696 140.477 510.348 139.981 510.092C139.493 509.828 138.845 509.696 138.037 509.696H133.717L135.493 501.2H143.749V504.128H137.869L137.329 506.768L138.517 506.78C139.653 506.82 140.657 507.096 141.529 507.608C142.401 508.12 143.081 508.808 143.569 509.672C144.065 510.528 144.313 511.492 144.313 512.564C144.313 513.348 144.165 514.088 143.869 514.784C143.573 515.48 143.161 516.092 142.633 516.62C142.105 517.148 141.493 517.564 140.797 517.868C140.109 518.164 139.365 518.312 138.565 518.312Z" fill="white"/>
<path d="M203.019 518V515.384C203.539 514.992 204.155 514.508 204.867 513.932C205.579 513.348 206.311 512.72 207.063 512.048C207.815 511.368 208.511 510.688 209.151 510.008C209.791 509.328 210.311 508.68 210.711 508.064C211.119 507.448 211.323 506.92 211.323 506.48C211.323 505.992 211.203 505.548 210.963 505.148C210.723 504.74 210.403 504.416 210.003 504.176C209.611 503.936 209.171 503.816 208.683 503.816C208.195 503.816 207.751 503.936 207.351 504.176C206.951 504.416 206.631 504.74 206.391 505.148C206.151 505.548 206.031 505.992 206.031 506.48H203.103C203.103 505.424 203.359 504.476 203.871 503.636C204.383 502.788 205.059 502.12 205.899 501.632C206.747 501.136 207.675 500.888 208.683 500.888C209.707 500.888 210.639 501.14 211.479 501.644C212.319 502.14 212.991 502.812 213.495 503.66C213.999 504.508 214.251 505.448 214.251 506.48C214.251 507.024 214.151 507.572 213.951 508.124C213.751 508.676 213.471 509.232 213.111 509.792C212.751 510.352 212.327 510.92 211.839 511.496C211.351 512.064 210.811 512.648 210.219 513.248C209.635 513.84 209.019 514.448 208.371 515.072H214.335V518H203.019ZM222.274 518.312C221.202 518.312 220.218 518.044 219.322 517.508C218.426 516.972 217.71 516.256 217.174 515.36C216.638 514.464 216.37 513.472 216.37 512.384C216.37 511.824 216.434 511.304 216.562 510.824C216.698 510.344 216.906 509.86 217.186 509.372L221.89 501.2H225.286L222.13 506.66C222.778 506.612 223.402 506.668 224.002 506.828C224.602 506.988 225.158 507.24 225.67 507.584C226.182 507.928 226.63 508.344 227.014 508.832C227.398 509.32 227.694 509.864 227.902 510.464C228.118 511.064 228.226 511.704 228.226 512.384C228.226 513.2 228.07 513.964 227.758 514.676C227.454 515.388 227.03 516.02 226.486 516.572C225.942 517.116 225.31 517.544 224.59 517.856C223.87 518.16 223.098 518.312 222.274 518.312ZM222.274 515.384C222.858 515.384 223.378 515.244 223.834 514.964C224.29 514.676 224.646 514.304 224.902 513.848C225.166 513.392 225.298 512.908 225.298 512.396C225.298 511.844 225.166 511.34 224.902 510.884C224.638 510.428 224.278 510.064 223.822 509.792C223.374 509.52 222.866 509.384 222.298 509.384C221.714 509.384 221.194 509.528 220.738 509.816C220.29 510.096 219.938 510.464 219.682 510.92C219.426 511.376 219.298 511.868 219.298 512.396C219.298 512.964 219.438 513.472 219.718 513.92C219.998 514.368 220.362 514.724 220.81 514.988C221.266 515.252 221.754 515.384 222.274 515.384Z" fill="white"/>
<path d="M287.007 518V515.384C287.527 514.992 288.143 514.508 288.855 513.932C289.567 513.348 290.299 512.72 291.051 512.048C291.803 511.368 292.499 510.688 293.139 510.008C293.779 509.328 294.299 508.68 294.699 508.064C295.107 507.448 295.311 506.92 295.311 506.48C295.311 505.992 295.191 505.548 294.951 505.148C294.711 504.74 294.391 504.416 293.991 504.176C293.599 503.936 293.159 503.816 292.671 503.816C292.183 503.816 291.739 503.936 291.339 504.176C290.939 504.416 290.619 504.74 290.379 505.148C290.139 505.548 290.019 505.992 290.019 506.48H287.091C287.091 505.424 287.347 504.476 287.859 503.636C288.371 502.788 289.047 502.12 289.887 501.632C290.735 501.136 291.663 500.888 292.671 500.888C293.695 500.888 294.627 501.14 295.467 501.644C296.307 502.14 296.979 502.812 297.483 503.66C297.987 504.508 298.239 505.448 298.239 506.48C298.239 507.024 298.139 507.572 297.939 508.124C297.739 508.676 297.459 509.232 297.099 509.792C296.739 510.352 296.315 510.92 295.827 511.496C295.339 512.064 294.799 512.648 294.207 513.248C293.623 513.84 293.007 514.448 292.359 515.072H298.323V518H287.007ZM301.078 518L309.082 504.128H300.238V501.2H312.478V504.128L304.45 518H301.078Z" fill="white"/>
<path d="M364.065 518V515.384C364.585 514.992 365.201 514.508 365.913 513.932C366.625 513.348 367.357 512.72 368.109 512.048C368.861 511.368 369.557 510.688 370.197 510.008C370.837 509.328 371.357 508.68 371.757 508.064C372.165 507.448 372.369 506.92 372.369 506.48C372.369 505.992 372.249 505.548 372.009 505.148C371.769 504.74 371.449 504.416 371.049 504.176C370.657 503.936 370.217 503.816 369.729 503.816C369.241 503.816 368.797 503.936 368.397 504.176C367.997 504.416 367.677 504.74 367.437 505.148C367.197 505.548 367.077 505.992 367.077 506.48H364.149C364.149 505.424 364.405 504.476 364.917 503.636C365.429 502.788 366.105 502.12 366.945 501.632C367.793 501.136 368.721 500.888 369.729 500.888C370.753 500.888 371.685 501.14 372.525 501.644C373.365 502.14 374.037 502.812 374.541 503.66C375.045 504.508 375.297 505.448 375.297 506.48C375.297 507.024 375.197 507.572 374.997 508.124C374.797 508.676 374.517 509.232 374.157 509.792C373.797 510.352 373.373 510.92 372.885 511.496C372.397 512.064 371.857 512.648 371.265 513.248C370.681 513.84 370.065 514.448 369.417 515.072H375.381V518H364.065ZM383.344 518.312C382.312 518.312 381.376 518.076 380.536 517.604C379.696 517.132 379.024 516.5 378.52 515.708C378.024 514.908 377.776 514.02 377.776 513.044C377.776 512.276 377.948 511.556 378.292 510.884C378.644 510.204 379.116 509.632 379.708 509.168C379.244 508.744 378.864 508.244 378.568 507.668C378.28 507.084 378.136 506.46 378.136 505.796C378.136 504.892 378.372 504.068 378.844 503.324C379.316 502.58 379.944 501.988 380.728 501.548C381.52 501.108 382.392 500.888 383.344 500.888C384.304 500.888 385.176 501.108 385.96 501.548C386.744 501.988 387.372 502.58 387.844 503.324C388.316 504.068 388.552 504.892 388.552 505.796C388.552 506.46 388.408 507.084 388.12 507.668C387.84 508.244 387.46 508.744 386.98 509.168C387.588 509.632 388.064 510.204 388.408 510.884C388.76 511.556 388.936 512.276 388.936 513.044C388.936 514.012 388.684 514.896 388.18 515.696C387.684 516.488 387.012 517.124 386.164 517.604C385.316 518.076 384.376 518.312 383.344 518.312ZM383.344 515.384C383.808 515.384 384.228 515.28 384.604 515.072C384.98 514.856 385.28 514.572 385.504 514.22C385.728 513.868 385.84 513.476 385.84 513.044C385.84 512.612 385.728 512.22 385.504 511.868C385.28 511.516 384.98 511.236 384.604 511.028C384.228 510.812 383.808 510.704 383.344 510.704C382.888 510.704 382.472 510.812 382.096 511.028C381.72 511.236 381.416 511.516 381.184 511.868C380.96 512.22 380.848 512.612 380.848 513.044C380.848 513.476 380.96 513.868 381.184 514.22C381.416 514.572 381.72 514.856 382.096 515.072C382.472 515.28 382.888 515.384 383.344 515.384ZM383.344 507.776C383.736 507.776 384.092 507.688 384.412 507.512C384.732 507.328 384.984 507.088 385.168 506.792C385.36 506.496 385.456 506.164 385.456 505.796C385.456 505.428 385.36 505.096 385.168 504.8C384.984 504.504 384.732 504.268 384.412 504.092C384.092 503.908 383.736 503.816 383.344 503.816C382.96 503.816 382.608 503.908 382.288 504.092C381.968 504.268 381.712 504.504 381.52 504.8C381.328 505.096 381.232 505.428 381.232 505.796C381.232 506.164 381.328 506.496 381.52 506.792C381.712 507.088 381.968 507.328 382.288 507.512C382.608 507.688 382.96 507.776 383.344 507.776Z" fill="#404040"/>
<path d="M444.019 518V515.384C444.539 514.992 445.155 514.508 445.867 513.932C446.579 513.348 447.311 512.72 448.063 512.048C448.815 511.368 449.511 510.688 450.151 510.008C450.791 509.328 451.311 508.68 451.711 508.064C452.119 507.448 452.323 506.92 452.323 506.48C452.323 505.992 452.203 505.548 451.963 505.148C451.723 504.74 451.403 504.416 451.003 504.176C450.611 503.936 450.171 503.816 449.683 503.816C449.195 503.816 448.751 503.936 448.351 504.176C447.951 504.416 447.631 504.74 447.391 505.148C447.151 505.548 447.031 505.992 447.031 506.48H444.103C444.103 505.424 444.359 504.476 444.871 503.636C445.383 502.788 446.059 502.12 446.899 501.632C447.747 501.136 448.675 500.888 449.683 500.888C450.707 500.888 451.639 501.14 452.479 501.644C453.319 502.14 453.991 502.812 454.495 503.66C454.999 504.508 455.251 505.448 455.251 506.48C455.251 507.024 455.151 507.572 454.951 508.124C454.751 508.676 454.471 509.232 454.111 509.792C453.751 510.352 453.327 510.92 452.839 511.496C452.351 512.064 451.811 512.648 451.219 513.248C450.635 513.84 450.019 514.448 449.371 515.072H455.335V518H444.019ZM460.25 518L463.478 512.42C462.686 512.468 461.93 512.36 461.21 512.096C460.498 511.832 459.862 511.44 459.302 510.92C458.742 510.4 458.298 509.784 457.97 509.072C457.65 508.36 457.49 507.588 457.49 506.756C457.49 505.948 457.642 505.192 457.946 504.488C458.25 503.776 458.67 503.152 459.206 502.616C459.75 502.072 460.374 501.648 461.078 501.344C461.79 501.04 462.554 500.888 463.37 500.888C464.434 500.888 465.406 501.152 466.286 501.68C467.174 502.208 467.882 502.916 468.41 503.804C468.946 504.692 469.214 505.676 469.214 506.756C469.214 507.292 469.146 507.8 469.01 508.28C468.882 508.752 468.678 509.232 468.398 509.72L463.634 518H460.25ZM463.346 509.696C463.922 509.696 464.43 509.556 464.87 509.276C465.318 508.996 465.666 508.632 465.914 508.184C466.162 507.736 466.286 507.256 466.286 506.744C466.286 506.184 466.15 505.684 465.878 505.244C465.606 504.796 465.246 504.448 464.798 504.2C464.35 503.944 463.874 503.816 463.37 503.816C462.794 503.816 462.282 503.956 461.834 504.236C461.394 504.508 461.046 504.868 460.79 505.316C460.534 505.764 460.406 506.24 460.406 506.744C460.406 507.28 460.534 507.772 460.79 508.22C461.054 508.668 461.406 509.028 461.846 509.3C462.294 509.564 462.794 509.696 463.346 509.696Z" fill="#404040"/>
<path d="M526.237 518.312C525.221 518.312 524.305 518.072 523.489 517.592C522.673 517.112 522.025 516.468 521.545 515.66C521.065 514.844 520.825 513.94 520.825 512.948H523.753C523.753 513.396 523.857 513.804 524.065 514.172C524.281 514.54 524.577 514.836 524.953 515.06C525.329 515.276 525.757 515.384 526.237 515.384C526.677 515.384 527.085 515.276 527.461 515.06C527.845 514.836 528.153 514.54 528.385 514.172C528.617 513.804 528.733 513.396 528.733 512.948C528.733 512.364 528.577 511.88 528.265 511.496C527.953 511.104 527.517 510.812 526.957 510.62C526.405 510.428 525.761 510.332 525.025 510.332V508.076C526.017 508.076 526.801 507.888 527.377 507.512C527.961 507.136 528.253 506.584 528.253 505.856C528.253 505.48 528.157 505.136 527.965 504.824C527.773 504.512 527.517 504.264 527.197 504.08C526.885 503.888 526.541 503.792 526.165 503.792C525.781 503.792 525.409 503.888 525.049 504.08C524.689 504.264 524.393 504.512 524.161 504.824C523.937 505.136 523.825 505.48 523.825 505.856H520.897C520.897 505.168 521.037 504.524 521.317 503.924C521.597 503.316 521.981 502.784 522.469 502.328C522.965 501.872 523.525 501.516 524.149 501.26C524.781 500.996 525.441 500.864 526.129 500.864C527.033 500.864 527.869 501.088 528.637 501.536C529.405 501.984 530.021 502.584 530.485 503.336C530.949 504.088 531.181 504.928 531.181 505.856C531.181 506.504 531.029 507.14 530.725 507.764C530.421 508.388 529.989 508.828 529.429 509.084C529.917 509.26 530.325 509.556 530.653 509.972C530.981 510.38 531.229 510.848 531.397 511.376C531.573 511.896 531.661 512.42 531.661 512.948C531.661 513.932 531.413 514.832 530.917 515.648C530.421 516.456 529.761 517.104 528.937 517.592C528.121 518.072 527.221 518.312 526.237 518.312ZM539.647 518.312C538.671 518.312 537.783 518.088 536.983 517.64C536.183 517.184 535.491 516.556 534.907 515.756C534.331 514.956 533.887 514.032 533.575 512.984C533.263 511.928 533.107 510.8 533.107 509.6C533.107 508.4 533.263 507.276 533.575 506.228C533.887 505.172 534.331 504.244 534.907 503.444C535.491 502.644 536.183 502.02 536.983 501.572C537.783 501.116 538.671 500.888 539.647 500.888C540.623 500.888 541.511 501.116 542.311 501.572C543.111 502.02 543.795 502.644 544.363 503.444C544.939 504.244 545.383 505.172 545.695 506.228C546.015 507.276 546.175 508.4 546.175 509.6C546.175 510.8 546.015 511.928 545.695 512.984C545.383 514.032 544.939 514.956 544.363 515.756C543.795 516.556 543.111 517.184 542.311 517.64C541.511 518.088 540.623 518.312 539.647 518.312ZM539.647 515.384C540.503 515.384 541.211 515.112 541.771 514.568C542.331 514.024 542.747 513.312 543.019 512.432C543.291 511.552 543.427 510.608 543.427 509.6C543.427 508.536 543.283 507.568 542.995 506.696C542.707 505.816 542.283 505.116 541.723 504.596C541.163 504.076 540.471 503.816 539.647 503.816C538.999 503.816 538.435 503.976 537.955 504.296C537.483 504.608 537.091 505.036 536.779 505.58C536.467 506.124 536.235 506.744 536.083 507.44C535.931 508.128 535.855 508.848 535.855 509.6C535.855 510.6 535.991 511.544 536.263 512.432C536.543 513.312 536.963 514.024 537.523 514.568C538.091 515.112 538.799 515.384 539.647 515.384Z" fill="white"/>
<path d="M35.0186 518V515.384C35.5386 514.992 36.1546 514.508 36.8666 513.932C37.5786 513.348 38.3106 512.72 39.0626 512.048C39.8146 511.368 40.5106 510.688 41.1506 510.008C41.7906 509.328 42.3106 508.68 42.7106 508.064C43.1186 507.448 43.3226 506.92 43.3226 506.48C43.3226 505.992 43.2026 505.548 42.9626 505.148C42.7226 504.74 42.4026 504.416 42.0026 504.176C41.6106 503.936 41.1706 503.816 40.6826 503.816C40.1946 503.816 39.7506 503.936 39.3506 504.176C38.9506 504.416 38.6306 504.74 38.3906 505.148C38.1506 505.548 38.0306 505.992 38.0306 506.48H35.1026C35.1026 505.424 35.3586 504.476 35.8706 503.636C36.3826 502.788 37.0586 502.12 37.8986 501.632C38.7466 501.136 39.6746 500.888 40.6826 500.888C41.7066 500.888 42.6386 501.14 43.4786 501.644C44.3186 502.14 44.9906 502.812 45.4946 503.66C45.9986 504.508 46.2506 505.448 46.2506 506.48C46.2506 507.024 46.1506 507.572 45.9506 508.124C45.7506 508.676 45.4706 509.232 45.1106 509.792C44.7506 510.352 44.3266 510.92 43.8386 511.496C43.3506 512.064 42.8106 512.648 42.2186 513.248C41.6346 513.84 41.0186 514.448 40.3706 515.072H46.3346V518H35.0186ZM55.155 518V513.932H48.003V510.992L54.471 501.2H58.083V511.004H59.499V513.932H58.083V518H55.155ZM51.399 510.992L55.155 511.004L55.143 505.196L51.399 510.992Z" fill="white"/>
</svg>
