<svg width="135" height="212" viewBox="0 0 135 212" fill="none" xmlns="http://www.w3.org/2000/svg">
<g clip-path="url(#clip0_66_1731)">
<path d="M91.3953 42.0702C91.3953 42.0702 91.729 42.2361 92.275 42.5678C92.821 42.8995 93.5794 43.3971 94.3832 44.0605C95.1871 44.739 96.0516 45.5683 96.7796 46.5937C97.5076 47.619 98.1294 48.7951 98.4631 50.122C99.1304 52.7757 99.1153 55.324 98.6603 57.2087C98.1901 59.1086 97.2498 60.345 96.0516 60.541C94.8382 60.737 93.5794 59.8776 92.457 58.3698C91.3498 56.8619 90.364 54.7359 89.7422 52.2782C89.4388 51.0417 89.3933 49.8053 89.4995 48.6292C89.5905 47.4531 89.8635 46.3223 90.1517 45.3572C90.728 43.3971 91.3953 42.04 91.3953 42.04V42.0702Z" fill="#404040"/>
<path d="M111.082 54.6757C111.082 54.6757 112.098 56.3343 112.902 58.9126C113.099 59.561 113.251 60.2697 113.402 61.0236C113.554 61.7926 113.6 62.5917 113.6 63.4512C113.569 65.14 113.205 67.0097 112.28 68.804C110.384 72.4228 107.199 75.0765 104.363 75.936C102.952 76.3883 101.694 76.4486 100.723 76.1923C99.7522 75.9511 99.1001 75.4233 98.7664 74.7297C98.0839 73.3124 98.5692 71.5331 99.1304 69.6484C99.4186 68.6984 99.7826 67.7033 100.222 66.6629C100.662 65.6225 101.163 64.5067 101.769 63.3457C102.391 62.1695 103.256 61.0839 104.226 60.0435C104.727 59.5309 105.197 59.0182 105.758 58.5658C106.289 58.0984 106.805 57.6461 107.32 57.239C109.368 55.6105 111.097 54.6455 111.097 54.6455L111.082 54.6757Z" fill="#404040"/>
<path d="M119.591 78.5752C119.591 78.5752 119.788 79.0728 119.97 79.9775C120.152 80.8822 120.288 82.209 120.106 83.7923C119.924 85.3604 119.409 87.1698 118.468 88.8736C117.528 90.5775 116.193 92.2059 114.494 93.3971C111.082 95.7192 107.791 96.7595 105.152 96.9254C102.528 97.0913 100.496 96.6088 99.5552 95.2065C98.5997 93.8042 99.0547 91.6782 100.511 89.3712C101.224 88.2102 102.194 87.0492 103.317 85.9786C104.424 84.893 105.667 83.8526 106.941 82.9177C108.2 81.9829 109.58 81.4099 110.93 80.9576C112.295 80.5052 113.675 80.1886 114.95 79.8568C117.498 79.2537 119.606 78.5752 119.606 78.5752H119.591Z" fill="#404040"/>
<path d="M121.79 104.66C121.79 104.66 121.85 105.173 121.82 106.123C121.79 107.057 121.593 108.415 121.016 109.922C120.44 111.43 119.469 113.074 118.135 114.536C116.815 116.014 115.101 117.19 113.236 117.929C109.489 119.361 106.304 119.572 103.832 119.331C101.375 119.06 99.4035 118.306 98.4935 116.753C97.5986 115.215 98.1901 112.953 100.147 110.812C102.073 108.656 105.182 106.756 108.261 105.535C111.279 104.283 114.282 104.66 116.936 104.705C118.256 104.75 119.469 104.766 120.364 104.735C121.259 104.705 121.79 104.66 121.79 104.66Z" fill="#404040"/>
<path d="M113.054 124.834C113.054 124.834 113.251 125.302 113.509 126.237C113.766 127.187 113.888 128.559 113.63 130.217C113.509 131.047 113.281 131.951 112.917 132.841C112.553 133.731 112.098 134.65 111.507 135.495C110.324 137.199 108.67 138.706 106.714 139.686C102.846 141.586 99.449 141.948 96.9161 141.752C94.3681 141.526 92.4116 140.742 91.5319 139.159C90.6522 137.591 91.3044 135.359 93.1699 133.233C95.0203 131.092 97.8868 129.177 100.556 127.79C103.135 126.418 105.849 126.372 108.428 125.98C109.687 125.799 110.839 125.513 111.704 125.272C112.568 125.03 113.069 124.819 113.069 124.819L113.054 124.834Z" fill="#404040"/>
<path d="M72.9373 57.2393C72.9373 57.2393 74.8484 57.3297 77.2751 57.8725C79.7018 58.4304 82.5835 59.4407 84.7371 61.5366C86.8908 63.6324 88.5137 65.9092 89.3782 67.99C90.2427 70.0558 90.3792 71.9405 89.4085 73.1468C88.4379 74.3531 86.542 74.6546 84.2215 74.0515C81.9161 73.4484 79.2164 71.9405 76.8201 69.6486C74.4237 67.3417 73.362 64.1903 73.0132 61.6572C72.6643 59.109 72.9222 57.2393 72.9222 57.2393H72.9373Z" fill="#404040"/>
<path d="M71.1628 79.1934C71.1628 79.1934 71.633 79.3441 72.4065 79.4497C73.18 79.5703 74.2265 79.5703 75.3792 79.5854C75.9555 79.5854 76.5925 79.5854 77.2599 79.6759C77.9272 79.7513 78.6855 79.8719 79.4287 80.0377C80.9151 80.3845 82.3862 80.9424 83.7209 81.8622C88.9687 85.5715 91.911 90.683 90.2123 93.382C88.5136 96.081 82.5986 95.2064 76.9413 91.5274C75.546 90.5925 74.4237 89.4013 73.544 88.1498C73.1041 87.5165 72.725 86.8833 72.3913 86.1897C72.0425 85.4961 71.7391 84.7874 71.4965 84.0938C71.0111 82.7066 70.8898 81.3948 70.9504 80.5353C71.0111 79.6608 71.178 79.2235 71.178 79.2235L71.1628 79.1934Z" fill="#404040"/>
<path d="M69.8888 102.519C69.8888 102.519 71.906 102.413 74.3478 102.217C76.8049 102.081 79.8079 101.9 82.9929 103.65C84.6006 104.554 86.1021 105.685 87.3307 106.997C88.544 108.309 89.4995 109.741 90 111.158C90.5157 112.561 90.6067 113.857 90.3792 114.807C90.1517 115.772 89.636 116.421 88.9535 116.768C88.2558 117.114 87.4368 117.16 86.6026 117.084C85.7685 116.994 84.8433 116.843 83.8878 116.617C82.9323 116.406 81.9464 116.104 80.8392 115.697C79.7321 115.305 78.5339 114.762 77.2144 114.069C75.8645 113.345 74.6057 112.304 73.5137 111.083C72.4368 109.847 71.5571 108.459 70.9808 107.163C70.4045 105.866 70.1163 104.675 69.995 103.83C69.8736 102.986 69.8888 102.504 69.8888 102.504V102.519Z" fill="#404040"/>
<path d="M68.2811 120.839C68.2811 120.839 68.6603 121.065 69.3125 121.367C69.9798 121.653 70.8747 122 71.8757 122.271C73.8777 122.859 76.1376 123.221 78.3064 125.016C79.3833 125.905 80.4601 126.961 81.2791 127.986C82.0981 129.026 82.7655 130.082 83.2205 131.062C84.1456 133.037 84.2973 134.786 83.4176 135.902C82.538 137.003 80.7786 137.259 78.6401 136.807C77.5632 136.581 76.3954 136.189 75.182 135.616C73.9687 135.027 72.8009 134.319 71.542 133.339C70.2832 132.374 69.2215 131.032 68.4935 129.569C67.7503 128.107 67.356 126.523 67.3105 125.151C67.2498 123.779 67.5076 122.663 67.7806 121.94C68.0688 121.201 68.2811 120.854 68.2811 120.854V120.839Z" fill="#404040"/>
<path d="M106.107 149.865C106.107 149.865 105.925 150.317 105.592 151.116C105.243 151.916 104.697 152.986 103.938 154.147C103.544 154.72 103.135 155.384 102.619 155.957C102.118 156.56 101.557 157.133 100.935 157.706C100.329 158.294 99.631 158.776 98.8878 159.213C98.1447 159.651 97.3408 160.028 96.4763 160.284C93.0334 161.324 89.6664 161.415 87.1487 160.797C84.6158 160.178 82.9323 158.882 82.5835 157.193C82.2346 155.474 83.266 153.68 85.086 152.051C86.906 150.423 89.5299 148.975 92.5936 147.995C93.3519 147.739 94.1406 147.603 94.9141 147.528C95.7028 147.467 96.4611 147.437 97.2498 147.528C98.0233 147.588 98.7817 147.694 99.5097 147.829C100.238 147.95 100.951 148.161 101.603 148.327C102.907 148.674 104.045 149.066 104.848 149.367C105.637 149.684 106.107 149.865 106.107 149.865Z" fill="#404040"/>
<path d="M58.0283 137.983C58.0283 137.983 58.4682 137.908 59.2113 137.847C59.9545 137.787 61.0465 137.681 62.2295 137.742C64.6714 137.802 67.6138 138.39 69.904 140.26C71.0415 141.195 72.0273 142.22 72.8312 143.245C73.2407 143.758 73.5895 144.286 73.908 144.813C74.2113 145.326 74.4995 145.869 74.7877 146.472C75.0607 147.06 75.3337 147.663 75.455 148.296C75.5915 148.9 75.637 149.488 75.5612 149.985C75.4095 150.965 74.8332 151.538 74.1658 151.795C73.4833 152.066 72.7553 152.051 72.0425 152.111C71.7088 152.141 71.36 152.187 70.9808 152.232C70.5865 152.292 70.2225 152.277 69.7675 152.247C68.8878 152.202 67.5834 151.749 66.4307 151.207C65.2477 150.649 64.0344 149.91 62.8514 149.02C60.5157 147.211 59.2872 144.482 58.7108 142.129C58.3923 140.983 58.2558 139.913 58.1497 139.174C58.0435 138.435 58.0283 137.998 58.0283 137.998V137.983Z" fill="#404040"/>
<path d="M97.2346 173.748C97.2346 173.748 96.9464 174.231 96.3549 174.985C95.7634 175.724 94.823 176.764 93.549 177.699C92.2902 178.649 90.6977 179.553 88.9535 180.157C87.2093 180.76 85.3893 181.091 83.5692 180.971C79.8837 180.73 76.5925 179.734 74.2416 178.332C73.6501 177.97 73.1193 177.593 72.6643 177.216C72.1941 176.824 71.8453 176.432 71.4509 175.98C70.5713 175.09 70.3893 174.08 70.6016 173.206C70.8139 172.316 71.3448 171.607 71.8149 170.808C72.0879 170.401 72.5733 170.054 73.0586 169.707C73.5591 169.376 74.1203 169.044 74.7421 168.742C77.2143 167.581 80.5965 166.918 84.2821 167.054C86.1476 167.114 87.816 167.642 89.272 168.32C90.728 169.014 92.0172 169.873 93.1698 170.687C94.3074 171.502 95.3235 172.316 96.0515 172.859C96.7947 173.417 97.2346 173.763 97.2346 173.763V173.748Z" fill="#404040"/>
<path d="M47.3206 150.739C47.3206 150.739 47.7907 150.86 48.5794 151.071C49.3833 151.282 50.4753 151.644 51.7189 152.142C54.176 153.167 57.0273 154.886 58.6502 157.705C59.4692 159.108 60.1062 160.525 60.5309 161.912C60.7281 162.606 60.9404 163.299 61.0011 163.918C61.1072 164.536 61.1376 165.064 61.1224 165.546C61.1224 166.029 61.0466 166.496 61.0011 166.903C60.9556 167.325 60.8646 167.748 60.7887 168.14C60.6371 168.939 60.4854 169.723 60.0607 170.386C59.6512 171.035 58.9232 171.487 57.8615 171.517C57.3307 171.532 56.7088 171.457 56.1022 171.231C55.4955 171.004 54.813 170.718 54.2063 170.326C53.5845 169.934 53.0081 169.482 52.447 169.029C51.8706 168.592 51.3853 168.124 50.8696 167.612C49.8383 166.586 48.8979 165.35 48.0486 163.963C46.3347 161.204 46.1679 157.886 46.4257 155.263C46.5926 153.936 46.7897 152.82 46.9869 152.006C47.1841 151.222 47.3054 150.739 47.3054 150.739H47.3206Z" fill="#404040"/>
<path d="M85.3287 187.425C85.3287 187.425 85.0557 187.953 84.5096 188.797C84.2366 189.219 83.8726 189.732 83.4328 190.26C82.993 190.802 82.4773 191.451 81.8555 192.009C81.2336 192.597 80.5359 193.2 79.7321 193.743C78.9434 194.346 78.0486 194.813 77.0931 195.25C76.1376 195.642 75.091 196.019 73.999 196.2C72.907 196.411 71.7695 196.457 70.6168 196.381C69.4641 196.276 68.3418 196.11 67.265 195.854C66.2033 195.612 65.1871 195.265 64.2468 194.889C63.3064 194.481 62.4419 194.089 61.6684 193.562C60.8949 193.064 60.1972 192.551 59.6057 192.009C58.4075 190.938 57.6037 189.762 57.2093 188.661C56.7998 187.561 56.7998 186.535 57.179 185.631C57.5582 184.726 58.3014 183.987 59.2417 183.414C59.7119 183.128 60.2427 182.901 60.819 182.645C61.3954 182.404 62.0021 182.238 62.6542 182.057C63.9434 181.755 65.3843 181.469 66.8706 181.378C67.629 181.303 68.3873 181.288 69.176 181.258C69.9647 181.258 70.7685 181.258 71.5875 181.303C72.4065 181.318 73.2104 181.469 73.9839 181.65C74.7574 181.861 75.5309 182.117 76.2892 182.434C77.0476 182.72 77.7907 183.097 78.5036 183.489C79.2316 183.881 79.9444 184.273 80.5814 184.62C81.9616 185.434 83.1143 186.113 83.9485 186.611C84.7978 187.138 85.3135 187.44 85.3135 187.44L85.3287 187.425Z" fill="#404040"/>
<path d="M39.1456 167.431C39.1456 167.431 39.5248 167.627 40.1466 167.959C40.7381 168.321 41.6785 168.788 42.6036 169.437C43.5137 170.085 44.5753 170.854 45.455 171.774C46.3498 172.693 47.1234 173.764 47.6239 175.015C48.1244 176.267 48.5035 177.488 48.7159 178.695C48.8372 179.283 48.8827 179.886 48.9282 180.444C48.9585 181.017 49.004 181.529 48.9434 182.072C48.8524 184.123 48.2912 185.721 47.0779 186.369C45.8797 187.018 44.1962 186.596 42.4216 185.329C41.9515 185.027 41.5268 184.635 41.087 184.213C40.6471 183.791 40.2073 183.324 39.7978 182.796C38.9636 181.755 38.2508 180.519 37.6593 179.147C37.0677 177.775 36.8554 176.327 36.8857 174.94C36.9009 173.568 37.2194 172.241 37.5379 171.125C37.8564 170.009 38.3418 169.06 38.6299 168.426C38.9484 167.778 39.1456 167.416 39.1456 167.416V167.431Z" fill="#404040"/>
<path d="M92.0627 44.0007C91.9869 44.0007 91.9565 43.5182 91.6987 42.719C91.456 41.9199 90.8949 40.8192 89.9848 39.6129C89.0748 38.3916 87.8615 36.9893 86.6026 35.391C85.3135 33.8078 83.9333 32.0286 82.3863 30.2644C79.3226 26.7059 76.365 23.63 74.1962 21.4286C72.0273 19.2422 70.6471 17.9003 70.7381 17.7947C70.8291 17.6892 72.3762 18.8502 74.6815 20.9159C76.9869 22.9967 80.0506 26.0123 83.1446 29.601C84.7068 31.3802 86.0718 33.1896 87.3155 34.803C88.5592 36.4314 89.6967 37.8638 90.5612 39.1907C91.4257 40.5025 91.9262 41.7239 92.0627 42.6135C92.2144 43.5031 92.1082 43.9856 92.0475 43.9856L92.0627 44.0007Z" fill="#404040"/>
<path d="M111.036 59.9078C110.961 59.8777 111.127 59.3349 111.173 58.3397C111.234 57.3445 111.067 55.9121 110.551 54.1932C110.035 52.4743 109.307 50.4085 108.534 48.1468C107.745 45.8851 106.82 43.4122 105.607 40.9545C104.408 38.4817 102.952 36.3104 101.496 34.4105C100.04 32.5107 98.6602 30.8219 97.5682 29.3442C95.3539 26.404 94.3984 24.3232 94.5045 24.2629C94.641 24.1875 95.7937 26.1175 98.1294 28.907C99.2821 30.3092 100.723 31.9377 102.224 33.8376C103.741 35.7223 105.273 37.969 106.501 40.5172C107.745 43.0504 108.655 45.5684 109.398 47.8603C110.126 50.1673 110.779 52.2179 111.234 54.0122C111.673 55.8065 111.749 57.3445 111.552 58.3849C111.385 59.4253 111.067 59.9229 111.021 59.9078H111.036Z" fill="#404040"/>
<path d="M113.66 45.2968C113.66 45.2968 114.206 45.6586 115.025 46.4879C115.844 47.3172 116.921 48.5989 118.059 50.348C119.196 52.082 120.334 54.3135 121.183 56.9372C122.047 59.5457 122.609 62.5613 122.624 65.7428C122.624 68.9244 122.093 71.94 121.244 74.5636C120.394 77.1872 119.287 79.4188 118.15 81.1679C117.027 82.917 115.95 84.2137 115.147 85.043C114.343 85.8723 113.842 86.2794 113.797 86.2342C113.66 86.1135 115.495 84.3192 117.543 80.7909C118.559 79.0419 119.575 76.8404 120.349 74.2771C121.122 71.7289 121.608 68.8037 121.608 65.7278C121.577 62.6518 121.077 59.7417 120.288 57.1935C119.499 54.6453 118.468 52.4438 117.437 50.6948C116.405 48.9457 115.435 47.6188 114.722 46.7141C114.009 45.8245 113.6 45.3269 113.66 45.2666V45.2968Z" fill="#404040"/>
<path d="M61.0616 54.6762C61.0616 54.6762 61.1981 55.1286 61.2588 55.9126C61.2891 56.3047 61.3195 56.7872 61.3953 57.3601C61.456 57.918 61.5015 58.5664 61.6228 59.26C61.8048 60.6623 62.1233 62.3209 62.5783 64.1303C62.8362 65.0199 63.0788 65.9849 63.4277 66.9348C63.731 67.8998 64.1405 68.8799 64.5348 69.8751C64.9747 70.8552 65.3994 71.8202 65.8847 72.7098C66.3245 73.6296 66.8554 74.4589 67.3255 75.2731C68.3114 76.8563 69.2821 78.2435 70.1769 79.3593C70.6016 79.9323 71.0262 80.4148 71.3903 80.852C71.7391 81.2893 72.0728 81.6512 72.3306 81.9527C72.8614 82.5559 73.1344 82.9177 73.0889 82.963C73.0434 83.0082 72.6794 82.7519 72.0576 82.2241C71.7391 81.9678 71.3751 81.6361 70.9807 81.229C70.5712 80.8219 70.1011 80.3695 69.6309 79.8116C68.6602 78.7411 67.5985 77.369 66.552 75.7707C66.0515 74.9564 65.5055 74.1121 65.0354 73.1772C64.5348 72.2574 64.095 71.2773 63.6248 70.2671C63.2153 69.2418 62.8058 68.2315 62.5025 67.2364C62.1536 66.2563 61.9413 65.2762 61.6986 64.3414C61.274 62.4717 61.0313 60.7678 60.9403 59.3203C60.8645 58.5966 60.8796 57.9482 60.8645 57.3752C60.8493 56.8022 60.8645 56.3047 60.8948 55.9126C60.9555 55.1135 61.0161 54.6611 61.0768 54.6611L61.0616 54.6762Z" fill="#404040"/>
<path d="M69.3731 35.2396C69.54 35.2547 69.2821 37.0339 69.5855 39.8536C69.8585 42.6732 70.8747 46.5031 72.8463 50.3782C74.8029 54.2533 77.1386 57.48 78.8069 59.8172C80.4904 62.1543 81.5066 63.6169 81.4004 63.7073C81.2943 63.7827 80.0809 62.486 78.2457 60.2544C76.4257 58.0078 73.9687 54.8112 71.9515 50.8305C69.9343 46.8499 68.9788 42.8391 68.8878 39.9139C68.7665 36.9887 69.2973 35.2095 69.3883 35.2396H69.3731Z" fill="#404040"/>
<path d="M130.207 75.9209C130.207 75.9209 130.708 76.3582 131.284 77.3684C131.86 78.3786 132.528 79.9619 132.892 82.0276C133.256 84.0782 133.317 86.5812 132.998 89.3104C132.664 92.0245 132.118 95.0099 130.981 97.9954C129.858 100.981 128.114 103.62 125.915 105.414C123.701 107.193 121.183 108.007 119.075 108.158C118.013 108.234 117.042 108.188 116.223 107.992C115.389 107.826 114.722 107.555 114.191 107.299C113.145 106.741 112.705 106.243 112.735 106.213C112.796 106.138 113.311 106.515 114.358 106.937C114.889 107.118 115.541 107.344 116.33 107.434C117.118 107.57 118.028 107.555 119.014 107.449C120.986 107.223 123.322 106.379 125.324 104.705C127.326 103.001 128.964 100.514 130.04 97.6486C131.132 94.7838 131.694 91.8586 132.073 89.2199C132.437 86.5661 132.452 84.1536 132.179 82.1482C131.921 80.1428 131.39 78.5897 130.935 77.5644C130.48 76.524 130.131 75.9963 130.207 75.936V75.9209Z" fill="#404040"/>
<path d="M125.536 79.1328C125.536 79.1328 125.718 79.6455 125.839 80.5954C125.915 81.0779 125.976 81.666 125.991 82.3445C126.006 83.023 126.067 83.8071 125.991 84.6816C125.945 86.4156 125.672 88.4662 125.157 90.6978C124.853 91.7985 124.58 92.9746 124.11 94.1357C123.716 95.3268 123.17 96.4879 122.609 97.6941C121.987 98.8551 121.38 100.016 120.683 101.041C120.03 102.112 119.257 103.047 118.574 103.967C117.103 105.731 115.632 107.193 114.282 108.294C113.63 108.867 112.978 109.304 112.417 109.711C111.871 110.119 111.355 110.42 110.93 110.661C110.081 111.144 109.611 111.37 109.565 111.31C109.535 111.249 109.944 110.903 110.703 110.33C111.097 110.058 111.552 109.711 112.068 109.259C112.583 108.822 113.205 108.37 113.797 107.766C115.056 106.636 116.436 105.158 117.831 103.409C118.483 102.504 119.227 101.584 119.833 100.544C120.501 99.5337 121.077 98.4179 121.699 97.2719C122.23 96.0958 122.776 94.965 123.17 93.819C123.64 92.6881 123.913 91.5573 124.247 90.4867C124.793 88.3305 125.142 86.3402 125.263 84.6514C125.384 83.8071 125.369 83.0381 125.399 82.3746C125.445 81.6961 125.43 81.1231 125.415 80.6406C125.415 79.6907 125.43 79.1479 125.506 79.1479L125.536 79.1328Z" fill="#404040"/>
<path d="M129.995 110.917C129.995 110.917 129.995 111.445 129.843 112.35C129.767 112.802 129.661 113.36 129.449 113.993C129.252 114.626 129.07 115.365 128.751 116.119C128.175 117.687 127.28 119.467 126.097 121.336C125.46 122.241 124.838 123.221 124.034 124.126C123.291 125.076 122.396 125.95 121.501 126.855C120.546 127.699 119.606 128.544 118.62 129.237C117.679 129.991 116.648 130.564 115.708 131.137C113.766 132.223 111.931 133.022 110.324 133.504C109.535 133.791 108.792 133.942 108.14 134.092C107.503 134.258 106.926 134.349 106.471 134.394C105.546 134.515 105.03 134.545 105.015 134.469C105.015 134.394 105.5 134.243 106.395 134.017C106.835 133.912 107.381 133.776 108.003 133.55C108.625 133.339 109.338 133.158 110.096 132.826C111.628 132.268 113.387 131.424 115.238 130.338C116.132 129.75 117.118 129.177 118.028 128.438C118.984 127.76 119.879 126.945 120.804 126.116C121.668 125.242 122.533 124.397 123.276 123.477C124.065 122.618 124.687 121.668 125.324 120.809C126.507 119.029 127.447 117.325 128.099 115.833C128.463 115.109 128.691 114.4 128.933 113.797C129.176 113.194 129.343 112.666 129.479 112.229C129.752 111.354 129.949 110.872 130.01 110.887L129.995 110.917Z" fill="#404040"/>
<path d="M60.3792 96.9102C60.546 96.9554 60.0303 98.8854 59.6815 102.052C59.5298 103.635 59.4085 105.535 59.6511 107.601C59.8635 109.666 60.455 111.898 61.6532 113.964C62.8362 116.044 64.3529 117.809 65.733 119.437C67.1132 121.05 68.3569 122.543 69.2669 123.9C71.1324 126.614 71.5116 128.68 71.4054 128.695C71.2386 128.755 70.6319 126.84 68.6754 124.322C67.7199 123.056 66.4459 121.638 65.0202 120.055C63.6097 118.457 62.0172 116.678 60.7735 114.461C60.1516 113.361 59.6663 112.215 59.3326 111.069C58.999 109.923 58.817 108.792 58.726 107.706C58.5288 105.535 58.726 103.59 58.9838 101.976C59.5298 98.7648 60.2881 96.8951 60.3943 96.9252L60.3792 96.9102Z" fill="#404040"/>
<path d="M63.0789 82.3295C63.2457 82.2993 63.5187 84.0333 64.5652 86.6419C65.5814 89.2504 67.5227 92.6128 70.0253 96.1261C72.5278 99.6393 74.8635 102.806 76.274 105.294C77.7149 107.766 78.2912 109.455 78.185 109.5C78.0485 109.561 77.2447 108.008 75.6673 105.671C74.1203 103.318 71.724 100.242 69.1911 96.699C66.6734 93.1557 64.7624 89.6273 63.8979 86.8831C62.9879 84.154 62.9727 82.3446 63.0789 82.3295Z" fill="#404040"/>
<path d="M113.736 140.426C113.736 140.426 113.827 140.863 113.736 141.617C113.645 142.371 113.372 143.471 112.826 144.723C112.28 145.99 111.4 147.407 110.202 148.779C109.004 150.151 107.457 151.478 105.652 152.564C102.027 154.735 98.2659 155.64 95.6117 156.107C92.9272 156.559 91.2437 156.605 91.2285 156.484C91.2133 156.333 92.8513 156.032 95.46 155.413C98.0536 154.78 101.663 153.785 105.136 151.704C108.595 149.623 111.006 146.743 112.189 144.406C113.402 142.069 113.584 140.38 113.766 140.411L113.736 140.426Z" fill="#404040"/>
<path d="M50.8695 120.598C50.8695 120.598 51.0819 120.975 51.279 121.698C51.461 122.407 51.7492 123.447 52.1435 124.699C52.5227 125.965 53.0384 127.443 53.6906 129.041C54.0394 129.841 54.3731 130.685 54.7977 131.529C55.1921 132.389 55.6622 133.248 56.1173 134.138C56.6178 135.012 57.1031 135.857 57.6188 136.656C58.1041 137.47 58.6501 138.209 59.1355 138.918C60.1516 140.32 61.1223 141.556 61.9868 142.552C62.8513 143.547 63.5642 144.346 64.0647 144.889C64.5652 145.432 64.823 145.763 64.7775 145.824C64.732 145.869 64.3832 145.643 63.7917 145.175C63.2002 144.723 62.3963 143.984 61.456 143.034C60.5156 142.084 59.454 140.878 58.3771 139.461C57.8614 138.737 57.2851 137.998 56.7846 137.184C56.2386 136.385 55.7532 135.51 55.2376 134.62C54.7674 133.716 54.2972 132.826 53.9029 131.952C53.4782 131.077 53.1597 130.202 52.8261 129.388C52.2194 127.73 51.7492 126.192 51.461 124.895C51.1577 123.598 50.9757 122.528 50.8999 121.774C50.824 121.035 50.8089 120.613 50.8847 120.598H50.8695Z" fill="#404040"/>
<path d="M110.187 165.229C110.187 165.229 110.157 165.682 109.853 166.436C109.55 167.19 108.989 168.215 108.109 169.361C107.229 170.507 105.971 171.713 104.378 172.799C102.801 173.884 100.89 174.819 98.7664 175.483C94.5197 176.764 90.4701 176.764 87.6491 176.614C84.7977 176.433 83.0687 176.116 83.0687 175.995C83.0687 175.845 84.8432 175.92 87.6643 175.905C90.4701 175.875 94.3984 175.754 98.4782 174.533C100.495 173.899 102.331 173.04 103.862 172.045C105.394 171.05 106.638 169.949 107.563 168.924C109.414 166.858 110.02 165.184 110.187 165.26V165.229Z" fill="#404040"/>
<path d="M105.667 183.927C105.667 183.927 105.182 184.319 104.227 184.862C103.271 185.404 101.845 186.128 100.056 186.942C96.4763 188.571 91.3347 190.561 85.3438 191.617C79.3681 192.672 73.7867 192.401 69.904 191.617C67.9626 191.225 66.4156 190.757 65.3843 190.365C64.3529 189.973 63.8069 189.702 63.8221 189.641C63.8828 189.476 66.1729 190.32 70.0253 190.908C73.8625 191.511 79.3074 191.662 85.177 190.637C91.0466 189.611 96.1426 187.757 99.7675 186.309C103.392 184.847 105.607 183.806 105.667 183.942V183.927Z" fill="#404040"/>
<path d="M34.8837 117.899C34.8837 117.899 34.2316 118.502 33.1851 119.648C32.1385 120.794 30.8342 122.678 29.8938 125.287C28.9383 127.88 28.4378 131.198 28.6957 134.862C28.908 138.526 29.8332 142.506 30.9555 146.638C33.1851 154.916 35.9454 162.183 38.1598 167.34C39.267 169.918 40.2073 171.999 40.8595 173.432C41.5116 174.864 41.8605 175.663 41.7998 175.693C41.7391 175.724 41.269 174.985 40.5106 173.598C39.7523 172.21 38.6906 170.19 37.5076 167.627C35.1264 162.515 32.2295 155.232 29.9849 146.894C28.8625 142.747 27.9373 138.691 27.7705 134.907C27.5582 131.137 28.1497 127.684 29.2265 125.031C30.2882 122.362 31.7442 120.477 32.9121 119.376C33.4884 118.818 33.9889 118.441 34.3226 118.2C34.6714 117.974 34.8686 117.853 34.8837 117.883V117.899Z" fill="#404040"/>
<path d="M49.55 128.499C49.55 128.499 49.5045 128.966 49.2467 129.72C49.1102 130.097 48.9585 130.564 48.8068 131.107C48.64 131.65 48.4428 132.268 48.2912 132.962C47.5783 135.706 46.9868 139.626 47.3357 143.939C47.639 148.251 48.822 152.036 49.9444 154.629C50.2325 155.278 50.4752 155.881 50.7482 156.378C51.006 156.876 51.2032 157.358 51.3852 157.66C51.5824 157.977 51.8099 158.158 51.9767 158.203C52.1435 158.263 52.2649 158.203 52.28 158.248C52.28 158.263 52.2042 158.399 51.9464 158.399C51.6885 158.399 51.3549 158.218 51.0667 157.886C50.7785 157.539 50.5662 157.132 50.2477 156.635C49.9292 156.152 49.6258 155.564 49.2922 154.916C47.9727 152.337 46.638 148.447 46.3195 143.999C45.9555 139.551 46.6835 135.51 47.5935 132.751C47.7907 132.057 48.0485 131.439 48.2608 130.911C48.4732 130.368 48.6703 129.916 48.8675 129.569C49.2467 128.846 49.4742 128.469 49.5348 128.499H49.55Z" fill="#404040"/>
<path d="M110.642 171.622C110.642 171.622 110.384 172.165 109.717 173.01C109.05 173.854 108.003 175.015 106.547 176.282C105.106 177.563 103.226 178.92 101.011 180.202C98.7968 181.484 96.2184 182.645 93.4429 183.61C87.8464 185.525 82.5531 186.324 78.7614 186.791C74.9545 187.243 72.5733 187.349 72.5582 187.228C72.543 187.078 74.8787 186.716 78.6552 186.098C82.4166 185.449 87.634 184.544 93.1092 182.675C98.5845 180.805 103.15 178.121 106.092 175.754C109.05 173.387 110.506 171.517 110.642 171.622Z" fill="#404040"/>
<path d="M123.17 112.788C123.17 112.788 123.2 113.18 123.079 113.843C123.018 114.175 122.942 114.597 122.791 115.049C122.654 115.517 122.503 116.06 122.26 116.617C121.835 117.763 121.183 119.075 120.319 120.462C119.864 121.126 119.393 121.865 118.817 122.528C118.271 123.237 117.634 123.885 116.982 124.579C116.284 125.212 115.617 125.845 114.904 126.388C114.221 126.961 113.493 127.413 112.811 127.851C111.416 128.695 110.081 129.344 108.928 129.751C108.367 129.992 107.821 130.128 107.351 130.263C106.881 130.414 106.471 130.489 106.138 130.535C105.455 130.655 105.076 130.685 105.061 130.61C105.061 130.55 105.394 130.384 106.031 130.158C106.35 130.052 106.744 129.916 107.169 129.72C107.609 129.54 108.124 129.359 108.655 129.087C109.747 128.605 110.991 127.926 112.31 127.067C112.947 126.614 113.645 126.162 114.297 125.604C114.98 125.076 115.617 124.473 116.269 123.855C116.891 123.207 117.513 122.573 118.043 121.91C118.605 121.277 119.06 120.583 119.53 119.95C120.394 118.653 121.107 117.417 121.593 116.331C121.866 115.803 122.048 115.291 122.245 114.868C122.442 114.431 122.578 114.054 122.685 113.738C122.927 113.104 123.079 112.773 123.155 112.788H123.17Z" fill="#404040"/>
<path d="M129.449 141.587C129.449 141.587 129.449 142.22 129.115 143.276C128.782 144.331 128.19 145.854 127.083 147.543C126.006 149.232 124.414 151.056 122.321 152.715C120.243 154.374 117.634 155.791 114.737 156.816C111.84 157.842 108.959 158.369 106.335 158.641C103.711 158.897 101.314 158.897 99.3125 158.701C97.3104 158.505 95.7331 158.098 94.6714 157.736C93.6097 157.374 93.0789 157.073 93.0941 157.012C93.1547 156.846 95.4449 157.781 99.358 157.992C101.314 158.098 103.65 158.022 106.213 157.721C108.777 157.419 111.582 156.877 114.388 155.881C117.194 154.886 119.697 153.544 121.729 151.991C123.761 150.438 125.354 148.734 126.476 147.151C127.614 145.583 128.296 144.15 128.736 143.155C129.176 142.16 129.358 141.572 129.434 141.587H129.449Z" fill="#404040"/>
<path d="M65.5663 61.1144C65.7331 61.1144 65.6573 62.7277 66.2185 65.1855C66.7493 67.6583 68.0991 70.9303 70.3438 74.0967C72.5885 77.2632 75.1214 79.7661 76.9262 81.5906C78.7463 83.4151 79.8686 84.561 79.7624 84.6666C79.6714 84.7721 78.3974 83.8071 76.4409 82.1033C74.4995 80.3994 71.8453 77.9266 69.5248 74.6697C67.2043 71.3977 65.8999 67.9146 65.5208 65.3212C65.1264 62.7127 65.4753 61.0993 65.5814 61.1144H65.5663Z" fill="#404040"/>
<path d="M81.1881 25.9973C81.3398 26.0425 80.8089 28.0781 80.0354 31.3651C79.6562 33.0087 79.2164 34.9688 78.8524 37.1552C78.6856 38.2559 78.5339 39.4018 78.4429 40.6081C78.3519 41.7993 78.2912 43.0508 78.3367 44.3174C78.3519 45.5839 78.5036 46.8203 78.6856 47.9964C78.8979 49.1725 79.1861 50.2883 79.5046 51.3287C80.2022 53.4095 81.1123 55.2038 81.8706 56.7117C82.6441 58.2195 83.2508 59.4559 83.6603 60.3154C83.7513 60.5265 83.8423 60.6923 83.9485 60.7526C84.0546 60.8431 84.2215 60.7979 84.1911 60.6772C84.1911 60.5868 84.1305 60.5114 84.0546 60.5114C83.994 60.5265 83.9788 60.5717 83.9788 60.5717C83.9788 60.5868 83.9636 60.5566 84.0243 60.5717C84.1153 60.7074 84.267 60.7074 84.2518 60.8582C84.2973 61.009 84.0243 61.1296 83.8119 61.009C83.5844 60.9034 83.4328 60.6923 83.3114 60.4812C82.8109 59.6821 82.0981 58.506 81.2336 57.0283C80.3994 55.5506 79.3984 53.7563 78.6249 51.6001C78.2457 50.5145 77.9272 49.3535 77.6997 48.1321C77.5025 46.9108 77.3357 45.6292 77.3205 44.3174C77.2599 43.0056 77.3509 41.7239 77.4419 40.4875C77.5632 39.2511 77.7301 38.075 77.9272 36.9743C78.3367 34.7427 78.8524 32.7825 79.3226 31.1541C80.2781 27.8821 81.0364 25.937 81.1578 25.9671L81.1881 25.9973Z" fill="#404040"/>
<path d="M113.964 28.0477C113.964 28.0477 114.525 28.485 115.329 29.4651C116.117 30.4452 117.209 31.9379 118.256 33.9584C119.302 35.9638 120.334 38.5271 120.865 41.4975C121.411 44.4679 121.426 47.8756 120.592 51.2833C119.788 54.691 118.119 57.7217 116.148 60.0136C114.176 62.3356 112.037 64.0395 110.202 65.3513C108.352 66.6782 106.79 67.613 105.698 68.2614C104.606 68.8947 103.984 69.2113 103.938 69.1661C103.893 69.1058 104.454 68.6836 105.47 67.9447C106.486 67.2059 107.988 66.1655 109.762 64.7934C111.522 63.4213 113.569 61.6873 115.42 59.4255C117.27 57.1789 118.817 54.314 119.591 51.042C120.379 47.7851 120.41 44.5282 119.924 41.6483C119.454 38.7684 118.544 36.2654 117.604 34.26C115.677 30.2492 113.797 28.1382 113.948 28.0176L113.964 28.0477Z" fill="#404040"/>
<path d="M56.8453 111.988C56.997 111.957 57.5127 113.933 58.4075 117.084C59.3023 120.235 60.637 124.563 62.3964 129.252C64.1557 133.926 66.0061 138.073 67.4014 141.043C68.7968 144.014 69.7068 145.838 69.5703 145.914C69.4641 145.974 68.3266 144.27 66.7493 141.36C65.1719 138.45 63.2154 134.334 61.4409 129.614C59.6663 124.895 58.4378 120.492 57.7098 117.28C56.9818 114.068 56.7088 112.033 56.8453 112.018V111.988Z" fill="#404040"/>
<path d="M41.9969 136.445C41.9969 136.445 42.0273 136.581 41.9969 136.792C41.9666 137.003 41.8756 137.305 41.8301 137.697C41.6784 138.481 41.5874 139.627 41.7088 141.014C41.8149 142.416 42.2244 144.06 42.907 145.794C43.6046 147.528 44.5905 149.352 45.819 151.147C47.0475 152.941 48.3367 154.6 49.4742 156.153C50.6117 157.691 51.5976 159.138 52.3104 160.405C53.7816 162.938 54.2062 164.732 54.1001 164.762C53.9484 164.823 53.2962 163.164 51.7037 160.782C50.915 159.59 49.8989 158.218 48.731 156.71C47.5632 155.203 46.2437 153.559 44.9848 151.72C43.726 149.865 42.7249 147.965 42.0424 146.141C41.3751 144.301 41.0263 142.552 40.9959 141.074C40.9656 139.597 41.1779 138.39 41.4509 137.621C41.5571 137.229 41.7239 136.943 41.7998 136.747C41.8908 136.551 41.9666 136.46 41.9969 136.475V136.445Z" fill="#404040"/>
<path d="M26.7695 139.747C26.7695 139.747 26.7695 139.928 26.6785 140.23C26.6027 140.531 26.4055 140.953 26.2538 141.526C25.8898 142.642 25.4803 144.301 25.2528 146.366C25.0253 148.447 25.0708 150.935 25.5258 153.664C25.996 156.378 26.9212 159.288 28.3469 162.138C31.2437 167.853 35.3388 172.12 38.4176 174.985C41.5268 177.85 43.635 179.448 43.5289 179.569C43.4834 179.629 42.9222 179.282 41.9363 178.604C40.9505 177.925 39.5703 176.885 37.9475 175.498C34.7169 172.738 30.4399 168.456 27.452 162.576C25.9808 159.635 25.0557 156.605 24.6158 153.8C24.1911 150.98 24.2215 148.402 24.54 146.276C24.8585 144.15 25.3893 142.476 25.8747 141.391C26.087 140.833 26.3297 140.426 26.4813 140.154C26.633 139.883 26.724 139.747 26.7543 139.762L26.7695 139.747Z" fill="#404040"/>
<path d="M64.2771 107.028C64.4136 107.118 63.1244 109.003 61.3044 112.169C60.4096 113.753 59.4085 115.683 58.635 117.944C57.8615 120.191 57.361 122.8 57.6492 125.499C57.7705 126.856 58.1194 128.137 58.544 129.359C58.9535 130.58 59.4844 131.726 60.0304 132.781C61.1224 134.922 62.2902 136.762 63.2306 138.345C65.1416 141.497 66.0516 143.608 65.9303 143.668C65.7938 143.728 64.6866 141.768 62.6239 138.722C61.6077 137.184 60.3792 135.375 59.2114 133.204C58.635 132.118 58.0587 130.957 57.6189 129.675C57.179 128.409 56.7847 127.037 56.6633 125.589C56.36 122.694 56.9212 119.935 57.7857 117.628C58.6502 115.306 59.7422 113.361 60.7281 111.808C61.7139 110.239 62.6087 109.033 63.2458 108.219C63.8828 107.405 64.2619 106.982 64.3226 107.028H64.2771Z" fill="#404040"/>
<path d="M134.97 112.274C134.97 112.274 135.015 113.164 134.848 114.762C134.682 116.361 134.363 118.668 133.772 121.472C132.604 127.081 130.298 134.771 126.188 142.567C125.142 144.512 123.928 146.351 122.472 147.889C121.031 149.457 119.287 150.618 117.528 151.463C113.979 153.121 110.46 153.513 107.594 153.74C104.712 153.951 102.376 153.966 100.769 154.011C99.1608 154.041 98.266 154.056 98.266 153.981C98.266 153.921 99.1457 153.77 100.753 153.619C102.361 153.453 104.682 153.332 107.533 153.031C110.354 152.714 113.782 152.232 117.134 150.618C118.787 149.789 120.394 148.688 121.759 147.211C123.124 145.733 124.277 143.984 125.308 142.084C126.325 140.184 127.219 138.254 128.038 136.385C128.857 134.515 129.57 132.66 130.207 130.896C131.481 127.353 132.391 124.081 133.074 121.321C133.741 118.547 134.166 116.285 134.454 114.717C134.742 113.149 134.894 112.274 134.97 112.289V112.274Z" fill="#404040"/>
<path d="M110.445 35.3602C110.445 35.3602 111.294 35.6769 112.765 36.4308C113.463 36.853 114.328 37.3807 115.283 38.0442C116.208 38.7679 117.27 39.552 118.317 40.5924C118.878 41.0749 119.409 41.6328 119.924 42.2359C120.47 42.824 121.031 43.4422 121.532 44.1508C122.063 44.8294 122.609 45.538 123.094 46.3372C123.61 47.1062 124.11 47.9053 124.55 48.7799C125.035 49.6242 125.46 50.5289 125.854 51.4638C126.294 52.3836 126.598 53.3787 126.962 54.3739C127.31 55.3691 127.538 56.4396 127.826 57.48C127.993 58.5656 128.266 59.6362 128.357 60.7671C128.478 61.8828 128.569 62.9986 128.539 64.0843C128.584 65.185 128.478 66.2555 128.387 67.311C128.145 69.422 127.781 71.4424 127.113 73.2971C126.461 75.1517 125.445 76.8254 124.201 78.0618C122.958 79.3284 121.593 80.2481 120.288 80.9417C117.649 82.3139 115.344 82.9321 113.766 83.3693C112.189 83.7764 111.294 83.9423 111.279 83.882C111.264 83.8066 112.113 83.5201 113.66 82.9924C115.192 82.4496 117.437 81.7258 119.939 80.3085C121.183 79.5998 122.457 78.68 123.595 77.4737C124.747 76.2826 125.642 74.7446 126.234 72.9653C126.855 71.2012 127.174 69.2259 127.401 67.1904C127.477 66.1651 127.583 65.1247 127.538 64.0692C127.553 63.0137 127.462 61.9432 127.356 60.8575C127.28 59.7719 127.007 58.7164 126.855 57.676C126.582 56.6507 126.37 55.6254 126.036 54.6453C125.688 53.6803 125.415 52.7002 124.99 51.8106C124.611 50.8908 124.216 50.0163 123.761 49.187C123.352 48.3275 122.867 47.5434 122.381 46.7895C121.926 46.0055 121.411 45.3119 120.91 44.6333C120.425 43.9397 119.909 43.3215 119.378 42.7335C118.878 42.1304 118.377 41.5725 117.846 41.0749C116.861 40.0194 115.844 39.2203 114.965 38.4664C114.055 37.7728 113.251 37.1998 112.583 36.7324C111.203 35.888 110.445 35.4055 110.475 35.3301L110.445 35.3602Z" fill="#404040"/>
<path d="M73.544 54.2988C73.544 54.2988 72.9524 55.0376 71.8301 56.3042C70.7078 57.5707 69.1152 59.4103 67.3407 61.8529C65.5814 64.2805 63.64 67.3113 61.8655 70.8547C60.1213 74.383 58.4378 78.5144 58.4378 83.0228C58.4378 87.5312 60.3033 91.6325 62.5632 94.829C64.823 98.0558 67.5227 100.468 69.8432 102.368C72.1941 104.253 74.1961 105.655 75.5763 106.65C76.9565 107.646 77.6997 108.203 77.6542 108.264C77.6087 108.324 76.7897 107.857 75.3488 106.967C73.908 106.077 71.8301 104.751 69.4034 102.911C66.9919 101.056 64.186 98.6589 61.8048 95.3568C60.6218 93.7133 59.545 91.8436 58.7411 89.7628C57.9524 87.682 57.4368 85.3901 57.4368 83.0228C57.4368 80.6555 57.8918 78.3636 58.5591 76.2677C59.2416 74.1568 60.1213 72.2268 61.0313 70.4325C62.8665 66.8438 64.8989 63.8282 66.7644 61.4157C68.6299 59.0032 70.3286 57.2089 71.5268 56.0177C72.7401 54.8265 73.4833 54.2384 73.5288 54.2837L73.544 54.2988Z" fill="#404040"/>
<path d="M78.64 16.0298C78.7158 15.9092 79.277 16.1354 80.2325 16.648C80.7179 16.9044 81.2942 17.2361 81.9161 17.6734C82.5531 18.1106 83.2962 18.5931 84.0394 19.2264C85.5713 20.4176 87.2548 22.031 88.9686 23.961C89.7876 24.9562 90.6673 25.9815 91.4408 27.1576C92.275 28.2884 93.003 29.555 93.7613 30.8367C94.4439 32.1636 95.1112 33.4452 95.642 34.7419C96.2184 36.0236 96.6127 37.3203 97.0374 38.5266C97.7654 40.9994 98.2356 43.2611 98.4327 45.1911C98.5692 46.1562 98.5844 47.0307 98.6147 47.7997C98.6602 48.5687 98.6299 49.2321 98.5844 49.7749C98.5086 50.8606 98.4024 51.4486 98.2507 51.4486C98.1142 51.4486 97.9474 50.8606 97.7957 49.8202C97.7199 49.2924 97.6289 48.6591 97.4924 47.9203C97.3559 47.1815 97.2497 46.3371 97.0222 45.4324C96.6582 43.5929 96.0667 41.4517 95.278 39.1146C94.8382 37.9687 94.4287 36.7323 93.8372 35.526C93.3215 34.2896 92.6542 33.0682 92.002 31.8017C91.274 30.5803 90.5915 29.3741 89.818 28.2734C89.1051 27.1425 88.271 26.1323 87.5429 25.1522C85.9808 23.2372 84.4792 21.5937 83.1142 20.297C82.4621 19.6185 81.7947 19.0756 81.2487 18.5781C80.7027 18.0654 80.2022 17.6432 79.7927 17.2964C78.9889 16.6028 78.5794 16.1505 78.6552 16.0449L78.64 16.0298Z" fill="#404040"/>
<path d="M109.232 36.8531C109.459 36.7325 110.506 38.0895 111.491 40.6679C112.462 43.2312 113.296 47.0008 113.069 51.2377C112.947 53.3487 112.583 55.339 111.992 57.0881C111.416 58.8372 110.642 60.3299 109.853 61.4759C109.08 62.6369 108.246 63.421 107.669 63.9336C107.048 64.401 106.668 64.6121 106.562 64.5066C106.335 64.2804 107.457 63.0591 108.61 60.7521C109.778 58.4753 110.839 55.0525 111.036 51.1171C111.249 47.1968 110.688 43.6082 110.111 41.075C109.535 38.5268 108.959 36.9737 109.216 36.8531H109.232Z" fill="#404040"/>
<path d="M122.76 63.5718C122.897 63.5567 123.064 63.8884 123.246 64.5217C123.337 64.8384 123.428 65.2304 123.488 65.6827C123.549 66.1351 123.64 66.6628 123.655 67.2509C123.731 68.4119 123.685 69.8142 123.473 71.3672C123.337 72.1362 123.23 72.9504 122.988 73.7647C122.791 74.594 122.502 75.4233 122.214 76.2677C121.881 77.097 121.547 77.9112 121.137 78.6651C120.773 79.4341 120.318 80.1126 119.924 80.776C119.06 82.0728 118.18 83.1584 117.346 83.9877C116.951 84.425 116.527 84.7567 116.178 85.0583C115.829 85.3598 115.495 85.6011 115.222 85.7669C114.661 86.1288 114.328 86.2645 114.221 86.159C114.13 86.0534 114.297 85.7217 114.676 85.194C114.874 84.9376 115.101 84.6361 115.359 84.2742C115.617 83.9123 115.935 83.5203 116.239 83.0679C116.891 82.1783 117.604 81.0625 118.316 79.811C118.65 79.1627 119.029 78.5143 119.348 77.7906C119.697 77.0819 119.985 76.328 120.303 75.559C120.576 74.7749 120.849 74.0059 121.062 73.252C121.304 72.4981 121.441 71.7593 121.623 71.0506C121.911 69.6332 122.108 68.3365 122.214 67.2358C122.29 66.6779 122.305 66.1803 122.351 65.7431C122.396 65.3058 122.427 64.9137 122.442 64.5971C122.502 63.9638 122.593 63.6019 122.73 63.5869L122.76 63.5718Z" fill="#404040"/>
<path d="M66.1881 46.9252C66.4611 46.8197 67.0981 47.7998 68.1294 49.3378C69.1456 50.8757 70.632 52.9414 72.4065 55.1429C74.181 57.3443 75.8797 59.2894 77.0475 60.7671C78.2154 62.2447 78.8676 63.255 78.6552 63.451C78.4581 63.647 77.457 62.9836 76.001 61.7471C74.5602 60.5107 72.6643 58.6712 70.814 56.3944C68.9636 54.1176 67.5986 51.7955 66.8554 50.0012C66.1123 48.2069 65.9302 47.0157 66.1729 46.9102L66.1881 46.9252Z" fill="#404040"/>
<path d="M64.2316 64.3564C64.3681 64.3262 64.5956 64.6579 64.8686 65.2762C65.1264 65.8944 65.5056 66.784 65.9758 67.8847C66.8858 70.0861 68.266 73.0414 70.1315 76.1174C72.0122 79.1934 74.0445 81.7567 75.5764 83.5811C77.1082 85.4056 78.1244 86.5214 77.9272 86.7476C77.7604 86.9436 76.4106 86.2047 74.545 84.5763C72.6795 82.9629 70.3742 80.3996 68.3873 77.1729C66.4156 73.9461 65.1871 70.7194 64.5956 68.337C64.2923 67.1459 64.1254 66.1658 64.0799 65.4722C64.0344 64.7786 64.0799 64.3865 64.2013 64.3564H64.2316Z" fill="#404040"/>
<path d="M126.78 91.0146C127.053 91.09 127.022 92.2511 126.734 94.0755C126.598 94.9802 126.4 96.0659 126.143 97.257C125.885 98.4331 125.627 99.76 125.126 101.162C124.656 102.565 123.868 103.891 122.958 104.856C122.063 105.837 121.122 106.5 120.319 107.013C118.696 108.008 117.604 108.385 117.452 108.174C117.285 107.932 118.135 107.118 119.454 105.897C120.106 105.279 120.865 104.555 121.547 103.665C122.245 102.791 122.806 101.75 123.231 100.499C123.67 99.2624 123.989 97.9657 124.353 96.8047C124.702 95.6437 125.051 94.6033 125.354 93.7287C125.991 91.9947 126.507 90.9543 126.78 91.0297V91.0146Z" fill="#404040"/>
<path d="M124.747 125.694C124.99 125.77 124.853 127.142 123.746 129.042C122.669 130.926 120.47 133.203 117.452 134.681C114.434 136.159 111.4 136.566 109.277 136.596C107.139 136.611 105.834 136.294 105.849 136.023C105.849 135.736 107.139 135.54 109.141 135.179C111.143 134.802 113.857 134.198 116.572 132.887C119.272 131.575 121.335 129.75 122.594 128.243C123.883 126.735 124.474 125.604 124.762 125.709L124.747 125.694Z" fill="#404040"/>
<path d="M117.513 136.43C117.755 136.475 117.816 137.847 117.012 139.868C116.224 141.888 114.449 144.391 111.886 146.442C109.323 148.493 106.684 149.759 104.773 150.558C102.846 151.342 101.588 151.674 101.466 151.418C101.345 151.162 102.376 150.393 104.12 149.292C105.849 148.191 108.276 146.759 110.627 144.874C112.978 142.989 114.722 140.893 115.738 139.22C116.785 137.561 117.225 136.355 117.513 136.43Z" fill="#404040"/>
<path d="M108.989 162.244C109.11 162.304 109.11 162.636 108.959 163.194C108.898 163.481 108.777 163.812 108.61 164.189C108.443 164.566 108.261 165.003 107.988 165.441C107.487 166.345 106.744 167.341 105.789 168.351C105.288 168.833 104.788 169.361 104.181 169.798C103.605 170.281 102.952 170.703 102.27 171.14C101.572 171.532 100.89 171.909 100.192 172.196C99.5096 172.512 98.8119 172.724 98.1597 172.935C96.825 173.296 95.5965 173.493 94.55 173.523C94.0344 173.568 93.5642 173.523 93.1547 173.493C92.7452 173.477 92.3963 173.417 92.1082 173.342C91.547 173.206 91.2437 173.07 91.2437 172.935C91.2437 172.799 91.5622 172.678 92.1082 172.558C92.3812 172.512 92.7148 172.452 93.094 172.377C93.4732 172.301 93.8979 172.241 94.368 172.12C95.3084 171.924 96.4004 171.608 97.5682 171.186C98.1446 170.944 98.7664 170.733 99.3731 170.417C99.9949 170.145 100.602 169.783 101.223 169.436C101.83 169.044 102.422 168.683 102.952 168.26C103.514 167.883 103.999 167.431 104.469 167.039C105.394 166.195 106.183 165.38 106.79 164.642C107.123 164.295 107.366 163.933 107.609 163.631C107.866 163.33 108.064 163.073 108.231 162.847C108.579 162.41 108.837 162.199 108.959 162.259L108.989 162.244Z" fill="#404040"/>
<path d="M96.0212 181.031C96.2184 181.197 95.7937 182.132 94.732 183.368C93.6704 184.604 91.9262 186.082 89.6966 187.228C87.4671 188.374 85.2376 188.932 83.6147 189.068C81.9919 189.218 80.9757 189.022 80.9606 188.751C80.9302 188.464 81.8706 188.148 83.3266 187.665C84.7826 187.183 86.7391 186.474 88.7866 185.434C90.819 184.378 92.548 183.217 93.7917 182.313C95.0354 181.423 95.8241 180.835 96.0516 181.031H96.0212Z" fill="#404040"/>
<path d="M38.2507 144.241C38.5389 144.256 38.6754 145.975 38.8726 148.734C39.0698 151.493 39.4186 155.263 40.0859 159.394C40.7684 163.526 41.6481 167.22 42.3155 169.889C42.998 172.558 43.4226 174.246 43.1496 174.352C42.907 174.458 41.997 172.95 40.9504 170.326C39.9039 167.718 38.7816 163.963 38.0839 159.711C37.4014 155.459 37.2801 151.554 37.4469 148.734C37.6137 145.914 37.9929 144.211 38.2507 144.226V144.241Z" fill="#404040"/>
<path d="M38.2508 115.472C38.539 115.472 38.721 117.794 38.903 121.533C39.1001 125.257 39.2821 130.399 40.3893 135.888C40.9505 138.617 41.724 141.165 42.6188 143.412C43.5137 145.658 44.545 147.573 45.5309 149.111C47.5026 152.202 49.2012 153.801 48.9889 154.042C48.8524 154.223 46.7594 152.986 44.363 149.941C43.1648 148.433 41.9515 146.457 40.905 144.15C39.8585 141.828 38.994 139.16 38.4025 136.31C37.2649 130.58 37.3104 125.303 37.4773 121.563C37.6593 117.809 37.9778 115.502 38.2508 115.502V115.472Z" fill="#404040"/>
<path d="M49.8079 130.565C49.9292 130.49 50.1871 130.64 50.5207 130.972C50.8544 131.289 51.3246 131.771 51.8857 132.344C53.0081 133.505 54.6158 135.013 56.6026 136.385C58.6046 137.757 60.5763 138.737 62.0627 139.386C63.549 140.034 64.5197 140.426 64.459 140.713C64.4135 140.969 63.3367 141.074 61.6228 140.743C59.9242 140.411 57.634 139.552 55.4348 138.044C53.2508 136.521 51.6431 134.681 50.7331 133.219C50.2781 132.48 49.9747 131.862 49.823 131.394C49.6714 130.927 49.6562 130.64 49.7775 130.58L49.8079 130.565Z" fill="#404040"/>
<path d="M46.8958 92.613C47.2143 92.6884 46.6076 94.9652 47.3508 98.5086C47.7148 100.273 48.4277 102.293 49.5803 104.374C50.733 106.455 52.3255 108.596 54.1607 110.722C61.547 119.301 69.0546 124.805 68.6906 125.272C68.5389 125.484 66.461 124.383 63.4125 122.121C60.3791 119.859 56.4054 116.406 52.6137 112.019C50.7179 109.817 49.0647 107.525 47.9272 105.218C46.7745 102.927 46.1375 100.65 45.9251 98.7046C45.7128 96.7595 45.91 95.1763 46.183 94.1359C46.456 93.0804 46.7593 92.5678 46.8958 92.5979V92.613Z" fill="#404040"/>
<path d="M55.0556 83.6259C55.3741 83.7164 54.8888 85.4504 55.3286 88.1192C55.5409 89.4461 56.0263 90.9991 56.8149 92.5974C57.6188 94.1807 58.7715 95.8091 60.2426 97.2566C63.2457 100.152 66.7492 101.931 69.2669 103.182C71.8149 104.419 73.4378 105.188 73.3468 105.459C73.2558 105.716 71.4813 105.429 68.7209 104.494C65.9909 103.544 62.1537 101.901 58.8321 98.6891C57.1789 97.0606 55.9504 95.2211 55.1314 93.3966C54.3276 91.5721 53.9332 89.7778 53.9029 88.27C53.8574 86.7622 54.0849 85.5408 54.3731 84.7568C54.4944 84.3647 54.6613 84.0782 54.7826 83.8822C54.9039 83.6862 54.9949 83.6108 55.0556 83.6259Z" fill="#404040"/>
<path d="M82.8867 45.5535C82.9929 45.644 82.9625 45.9305 82.8109 46.3527C82.644 46.7749 82.4165 47.378 82.1435 48.1018C81.8705 48.8255 81.6127 49.7001 81.37 50.6952C81.279 51.1928 81.1425 51.7055 81.097 52.2483C81.006 52.7911 80.9757 53.349 80.9302 53.937C80.9302 54.51 80.8999 55.083 80.9302 55.6258C80.9302 56.1686 81.006 56.6964 81.0515 57.1939C81.188 58.1891 81.3549 59.0938 81.5672 59.8477C81.7644 60.6016 81.9312 61.2198 82.0525 61.6571C82.1587 62.0944 82.1739 62.3809 82.0525 62.4562C81.9312 62.5316 81.6885 62.3809 81.3549 62.0341C81.006 61.6873 80.6117 61.1143 80.2173 60.3604C79.823 59.6065 79.459 58.6415 79.2012 57.5257C79.095 56.9678 78.9737 56.3797 78.9433 55.7615C78.8827 55.1433 78.8827 54.4949 78.8978 53.8466C78.9433 53.1831 79.004 52.5498 79.1253 51.9467C79.2163 51.3285 79.3983 50.7555 79.5652 50.2127C79.9292 49.1271 80.369 48.2073 80.8544 47.4836C81.3245 46.7598 81.7644 46.2321 82.1435 45.9305C82.5075 45.6139 82.7654 45.4932 82.8715 45.5686L82.8867 45.5535Z" fill="#404040"/>
<path d="M74.9393 65.4267C75.0758 65.4418 75.182 65.7886 75.2578 66.3917C75.3185 66.9948 75.4095 67.8543 75.546 68.9098C75.7887 71.0207 76.3953 73.8705 77.4267 76.9465C78.458 80.0224 79.6259 82.7667 80.3994 84.8022C81.1729 86.8378 81.5672 88.1496 81.3094 88.2702C81.0667 88.3909 80.2174 87.3052 79.095 85.4204C77.9879 83.5206 76.5773 80.8065 75.5005 77.5798C74.4085 74.353 73.9838 71.2167 74.1051 68.9701C74.1506 67.8543 74.2871 66.9496 74.4691 66.3314C74.636 65.7283 74.8028 65.3965 74.9393 65.4116V65.4267Z" fill="#404040"/>
<path d="M115.359 96.1259C115.875 96.2917 115.283 99.3074 113.22 102.414C111.173 105.52 108.625 107.254 108.261 106.847C107.867 106.424 109.641 104.193 111.537 101.298C113.448 98.4328 114.828 95.9299 115.359 96.1108V96.1259Z" fill="#404040"/>
<path d="M73.5288 115.215C73.817 115.215 74.0748 116.271 74.4691 117.914C74.8483 119.573 75.4247 121.82 76.3043 124.217C77.184 126.614 78.185 128.71 78.9585 130.218C79.7169 131.741 80.2022 132.706 79.9747 132.887C79.7624 133.053 78.8675 132.374 77.7452 130.987C76.6228 129.6 75.3337 127.459 74.3933 124.896C73.4681 122.332 73.0738 119.859 73.0435 118.08C73.0131 116.301 73.2558 115.215 73.5288 115.2V115.215Z" fill="#404040"/>
<path d="M0.0151928 227.909C-0.106142 227.698 0.36403 227.125 1.36504 226.235C1.86555 225.783 2.50255 225.271 3.2609 224.652C4.00407 224.019 4.85341 223.295 5.82409 222.511C7.75028 220.898 10.0708 218.892 12.7098 216.525C15.3034 214.098 18.2609 211.338 21.3701 208.111C27.6643 201.733 34.7321 193.682 42.9373 184.861C47.0324 180.458 51.5521 175.919 56.2387 171.396C60.91 166.857 65.7028 162.213 70.2376 157.222C74.7574 152.232 78.7311 147.075 81.8706 141.707C84.995 136.354 87.27 130.836 88.4378 125.377C89.636 119.934 89.7422 114.445 89.6664 109.243C89.5753 104.026 89.272 99.0657 89.2417 94.4819C89.1962 89.883 89.4692 85.6611 90.0455 81.9971C90.6219 78.3331 91.5167 75.2119 92.4874 72.7843C93.4732 70.3416 94.5197 68.5926 95.3236 67.4768C96.1729 66.3761 96.7189 65.8935 96.9313 66.0142C97.1436 66.1348 97.0071 66.8586 96.5976 68.1101C96.2336 69.3766 95.6269 71.2011 95.1112 73.5985C94.5956 75.996 94.1557 78.9513 93.9737 82.4193C93.8069 85.8873 93.8827 89.8679 94.2316 94.2859C94.5652 98.7189 95.1567 103.619 95.5207 109.017C95.8544 114.4 96.0061 120.371 94.8231 126.659C93.6704 132.931 91.2285 139.219 87.8767 145.145C84.5248 151.07 80.2326 156.68 75.5005 161.927C70.7381 167.174 65.7938 171.894 61.0465 176.357C56.2841 180.82 51.8251 185.102 47.6391 189.339C39.267 197.813 31.6987 205.624 24.8281 211.7C21.4156 214.761 18.1396 217.354 15.2275 219.541C12.27 221.697 9.63097 223.431 7.41661 224.743C6.29426 225.376 5.29325 225.934 4.41358 226.401C3.51873 226.839 2.74522 227.185 2.12338 227.442C0.864536 227.954 0.136527 228.12 0.0151928 227.909Z" fill="#404040"/>
</g>
<defs>
<clipPath id="clip0_66_1731">
<rect width="135" height="212" fill="white"/>
</clipPath>
</defs>
</svg>
