<svg width="455" height="148" viewBox="0 0 455 148" fill="none" xmlns="http://www.w3.org/2000/svg">
<g opacity="0.5">
<path d="M454.43 47.2454C455.494 45.9921 454.924 43.7514 453.443 43.5995C446.795 42.8779 432.02 41.6246 417.397 41.8525C400.988 42.0044 383.364 51.4989 377.932 54.803C377.172 55.2587 377.21 56.6259 377.932 57.1196C380.819 58.9805 386.934 62.6644 394.189 65.9305C401.444 69.1586 409.876 71.969 417.738 71.8551C425.183 71.7411 432.666 67.4116 439.199 62.2087C445.732 57.0057 451.24 50.9292 454.392 47.2833L454.43 47.2454Z" fill="#404040"/>
<path d="M393.657 4.25345C394.949 3.87367 396.696 4.8611 396.506 5.88651C395.632 10.5198 393.201 20.8118 389.175 30.4203C386.972 35.7751 382.68 40.5983 378.464 44.1303C374.21 47.7002 370.032 50.0928 367.943 51.1562C367.373 51.46 366.309 50.8904 366.157 50.2447C365.512 47.7002 364.296 42.4972 363.612 36.8385C362.929 31.1798 362.777 25.1033 364.714 20.3181C366.575 15.7987 371.893 12.5706 377.704 9.95014C383.516 7.32967 389.859 5.35481 393.619 4.25345L393.657 4.25345Z" fill="#404040"/>
<path d="M353.471 0.0379564C354.8 -0.303844 356.471 0.87347 356.168 1.93686C354.762 6.76005 351.724 17.4318 348.685 27.9517C346.938 33.8003 343.443 39.497 339.987 44.3202C336.53 49.1434 333.074 53.0552 331.327 54.9161C330.871 55.4478 329.655 55.2199 329.313 54.5743C328.022 52.0677 325.515 46.7508 323.882 40.4085C322.211 34.0662 321.451 26.6605 323.35 20.3561C325.135 14.3936 330.757 9.64637 336.872 6.30431C342.987 2.92427 349.634 0.987404 353.509 0.0379564L353.471 0.0379564Z" fill="#404040"/>
<path d="M317.577 2.35503C318.906 1.78536 320.654 2.84874 320.426 4.10201C319.362 9.7987 316.475 22.3694 311.842 34.2565C309.297 40.9026 304.549 47.055 299.915 51.7643C295.243 56.5116 290.685 59.7777 288.406 61.3348C287.798 61.7525 286.697 61.2208 286.583 60.4613C286.089 57.537 285.215 51.4985 284.911 44.8143C284.608 38.0923 284.911 30.7625 287.228 24.724C289.431 19.0273 295.091 14.508 301.168 10.7102C307.246 6.98832 313.779 4.02605 317.615 2.35503L317.577 2.35503Z" fill="#404040"/>
<path d="M273.82 5.1656C275.112 4.55796 276.897 5.54539 276.707 6.76068C275.871 12.3434 273.706 24.7622 270.212 36.6873C266.413 50.0935 254.297 62.1705 250.233 65.7404C249.663 66.2341 248.523 65.8923 248.295 65.1707C247.384 62.3604 245.675 56.5118 244.535 49.8656C243.434 43.1815 242.94 35.7378 244.763 29.3576C246.51 23.357 251.828 18.306 257.715 14.1664C263.565 10.0648 269.984 6.87461 273.744 5.1656L273.82 5.1656Z" fill="#404040"/>
<path d="M238.42 6.95074C239.711 6.34309 241.535 7.25455 241.383 8.46984C240.699 14.0146 239.066 26.2815 236.673 38.2446C234.014 51.6128 223.72 64.943 220.226 69.1586C219.732 69.7283 218.555 69.5763 218.213 68.8548C215.592 63.5379 208.033 46.4858 210.73 33.0416C213.275 20.3569 230.975 10.5207 238.42 6.91275L238.42 6.95074Z" fill="#404040"/>
<path d="M194.815 8.88698C196.145 8.54517 197.778 9.79845 197.474 10.8618C196.714 13.2924 195.765 17.3181 194.891 22.3691C194.017 27.4202 193.296 33.4967 192.574 39.877C191.739 46.9409 189.118 54.6884 185.927 61.1826C182.775 67.6768 179.052 72.6519 177.153 74.9306C176.659 75.5383 175.482 75.3104 175.178 74.5508C174.076 71.5885 171.721 65.664 169.518 58.9419C167.353 52.1818 165.416 44.3963 166.328 36.8008C167.163 29.6609 172.139 22.559 178.103 17.5839C184.066 12.5329 190.941 9.91239 194.815 8.92497L194.815 8.88698Z" fill="#404040"/>
<path d="M405.85 109.035C407.217 109.111 408.698 107.782 408.281 106.833C406.382 102.503 401.786 93.0086 395.784 84.5015C392.48 79.7543 387.238 75.9945 382.338 73.45C377.438 70.8675 372.804 69.5003 370.525 68.8926C369.918 68.7407 368.968 69.5003 368.968 70.1839C368.892 72.8043 368.854 78.1592 369.424 83.8179C369.994 89.4766 371.171 95.4392 374.134 99.6927C376.945 103.68 382.832 105.655 389.099 106.984C395.366 108.238 401.975 108.807 405.888 109.073L405.85 109.035Z" fill="#404040"/>
<path d="M367.563 121.947C368.93 121.947 370.297 120.466 369.766 119.517C367.373 115.111 362.017 105.389 356.775 95.7805C353.775 90.4636 349.141 85.6404 344.697 81.7286C340.253 77.7789 336.037 74.7407 333.947 73.2596C333.378 72.8418 332.238 73.2976 332.086 74.0191C331.365 76.7535 330.073 82.4502 329.883 89.0204C329.655 95.5906 330.529 102.996 333.758 108.693C336.796 114.086 343.291 117.542 350.014 119.441C356.737 121.378 363.612 121.871 367.638 121.947L367.563 121.947Z" fill="#404040"/>
<path d="M332.049 127.568C333.492 127.834 334.935 126.429 334.441 125.252C332.162 119.935 326.617 108.276 319.476 97.7178C315.526 91.7933 309.562 86.8182 304.017 83.2482C298.433 79.6403 293.23 77.4376 290.685 76.4502C290.001 76.1843 289.052 76.9059 289.09 77.7035C289.242 80.6657 289.735 86.7422 290.875 93.3504C292.052 99.9585 293.913 107.06 297.522 112.453C300.94 117.542 307.435 120.694 314.196 123.049C320.957 125.366 327.946 126.809 332.086 127.606L332.049 127.568Z" fill="#404040"/>
<path d="M288.71 134.366C290.115 134.67 291.634 133.303 291.179 132.163C289.128 126.885 284.304 115.263 278.302 104.364C271.655 92.1348 257.222 82.9821 252.474 80.3616C251.828 79.9818 250.765 80.5895 250.727 81.349C250.461 84.3113 250.043 90.3878 250.423 97.1099C250.803 103.87 251.98 111.238 255.133 117.048C258.133 122.517 264.477 126.277 271.086 129.049C277.695 131.784 284.646 133.455 288.71 134.328L288.71 134.366Z" fill="#404040"/>
<path d="M253.765 140.329C255.17 140.671 256.728 139.342 256.31 138.202C254.449 132.961 250.157 121.34 245.219 110.175C239.711 97.7179 226.721 86.9322 222.429 83.5902C221.821 83.1344 220.72 83.5901 220.53 84.3117C219.162 90.0844 215.478 108.352 221.062 120.884C226.303 132.696 245.713 138.43 253.803 140.329L253.765 140.329Z" fill="#404040"/>
<path d="M210.844 148C212.25 148.038 213.541 146.481 213.009 145.494C211.756 143.291 209.933 139.569 207.958 134.822C205.983 130.113 203.969 124.302 201.842 118.264C199.487 111.579 195.195 104.554 190.713 98.9328C186.231 93.2741 181.521 89.2105 179.166 87.4635C178.521 86.9698 177.419 87.4635 177.305 88.261C176.85 91.4132 175.9 97.6795 175.216 104.743C174.571 111.807 174.381 119.821 176.925 127.074C179.28 133.835 185.7 139.683 192.613 143.215C199.563 146.861 206.818 147.886 210.844 148Z" fill="#404040"/>
<path d="M-0.00023882 51.3082C-0.00023882 51.3082 1.21522 51.8019 3.5322 52.4855C5.88715 53.1311 9.3816 54.1185 13.8256 55.3338C18.3076 56.6251 23.8152 57.9543 30.2723 59.4354C33.5009 60.195 36.9194 60.9925 40.5657 61.8281C44.2501 62.5496 48.1244 63.3472 52.1886 64.1827C60.317 65.8917 69.319 67.3728 78.9667 68.9679C83.7906 69.8414 88.8043 70.4111 93.97 71.1326C99.1357 71.7783 104.453 72.6138 109.923 73.1455C115.393 73.7152 121.014 74.2848 126.712 74.8545C132.447 75.2722 138.296 75.69 144.298 76.1457C156.262 76.8293 168.645 77.437 181.331 77.475C184.522 77.475 187.674 77.5509 190.789 77.5889C193.942 77.5509 197.018 77.475 200.133 77.437C206.324 77.323 212.401 77.2851 218.365 76.9433C224.328 76.6394 230.216 76.4496 235.951 76.0318C241.686 75.5761 247.308 75.1583 252.778 74.7026C258.247 74.2468 263.565 73.5632 268.768 73.0315C273.972 72.5378 278.986 71.8922 283.81 71.1706C288.634 70.487 293.344 69.8414 297.826 69.1958C302.308 68.4362 306.6 67.6766 310.702 66.993C318.906 65.6638 326.275 64.0308 332.732 62.7395C339.227 61.4483 344.735 60.0431 349.293 59.3215C353.851 58.5619 357.421 58.448 359.852 58.5999C362.283 58.7518 363.536 58.9797 363.574 58.8658C363.574 58.8278 363.27 58.7139 362.663 58.5619C362.055 58.41 361.143 58.2201 359.89 58.0682C357.459 57.7644 353.775 57.7264 349.141 58.3341C344.507 58.9417 338.961 60.233 332.466 61.3343C325.971 62.5116 318.64 64.0308 310.436 65.2461C306.334 65.8917 302.042 66.5753 297.598 67.2969C293.116 67.8665 288.444 68.4742 283.62 69.1198C278.796 69.8034 273.782 70.3731 268.617 70.8668C263.451 71.3605 258.133 72.0061 252.664 72.4239C247.194 72.8417 241.611 73.2214 235.875 73.6392C230.14 74.019 224.29 74.1709 218.327 74.4747C212.363 74.8165 206.286 74.8165 200.133 74.9304C197.056 74.9684 193.942 75.0444 190.827 75.0823C187.712 75.0444 184.56 75.0064 181.407 74.9684C168.759 74.9304 156.414 74.3228 144.526 73.7151C138.562 73.2974 132.713 72.8796 127.015 72.4999C121.318 71.9302 115.696 71.3985 110.265 70.8668C104.795 70.4111 99.5156 69.6135 94.3499 68.9679C89.1842 68.2843 84.1704 67.7526 79.3845 66.9171C69.7368 65.436 60.7728 64.0688 52.6064 62.4357C48.5422 61.6761 44.6299 60.9546 40.9836 60.271C37.3372 59.4734 33.8807 58.7518 30.6522 58.0682C24.195 56.739 18.6495 55.5237 14.1295 54.4224C9.6095 53.359 6.07706 52.5614 3.72211 52.0298C1.3292 51.4981 0.0757499 51.2702 0.0377556 51.3461L-0.00023882 51.3082Z" fill="#404040"/>
</g>
</svg>
