<svg width="255" height="83" viewBox="0 0 255 83" fill="none" xmlns="http://www.w3.org/2000/svg">
<g clip-path="url(#clip0_47_2126)">
<path d="M254.681 26.4956C255.277 25.7927 254.957 24.5361 254.127 24.4509C250.402 24.0462 242.121 23.3434 233.926 23.4712C224.729 23.5564 214.852 28.881 211.808 30.734C211.382 30.9895 211.404 31.7563 211.808 32.0332C213.426 33.0768 216.853 35.1427 220.919 36.9744C224.985 38.7848 229.711 40.3608 234.117 40.297C238.289 40.2331 242.483 37.805 246.144 34.8871C249.806 31.9693 252.892 28.5615 254.659 26.5169L254.681 26.4956Z" fill="#B68F40"/>
<path d="M220.621 2.38501C221.345 2.17202 222.324 2.72579 222.218 3.30086C221.728 5.89933 220.366 11.6713 218.109 17.06C216.874 20.0631 214.469 22.7681 212.106 24.7489C209.722 26.751 207.38 28.0928 206.209 28.6892C205.89 28.8596 205.294 28.5401 205.209 28.178C204.847 26.751 204.166 23.833 203.782 20.6595C203.399 17.486 203.314 14.0781 204.4 11.3945C205.443 8.85988 208.423 7.04948 211.68 5.57985C214.937 4.11022 218.492 3.00268 220.6 2.38501L220.621 2.38501Z" fill="#B68F40"/>
<path d="M198.099 0.0200035C198.844 -0.171687 199.781 0.48858 199.611 1.08495C198.823 3.78991 197.12 9.77491 195.417 15.6747C194.438 18.9548 192.479 22.1496 190.542 24.8546C188.605 27.5595 186.668 29.7533 185.688 30.797C185.433 31.0952 184.752 30.9674 184.56 30.6053C183.836 29.1995 182.431 26.2177 181.516 22.6608C180.579 19.1039 180.154 14.9506 181.218 11.4149C182.218 8.071 185.369 5.40863 188.796 3.53432C192.224 1.63872 195.949 0.552476 198.12 0.0200035L198.099 0.0200035Z" fill="#B68F40"/>
<path d="M177.983 1.319C178.728 0.999511 179.707 1.59588 179.579 2.29874C178.983 5.49358 177.365 12.5435 174.768 19.2101C173.342 22.9374 170.681 26.3878 168.084 29.0289C165.465 31.6913 162.911 33.523 161.634 34.3962C161.293 34.6305 160.676 34.3323 160.612 33.9064C160.335 32.2663 159.846 28.8798 159.675 25.1312C159.505 21.3613 159.675 17.2506 160.974 13.8641C162.208 10.6692 165.38 8.13465 168.786 6.00475C172.192 3.91746 175.854 2.25615 178.004 1.319L177.983 1.319Z" fill="#B68F40"/>
<path d="M153.46 2.89598C154.184 2.5552 155.184 3.10898 155.078 3.79054C154.609 6.92149 153.396 13.8862 151.437 20.5741C149.309 28.0926 142.518 34.8657 140.24 36.8678C139.921 37.1447 139.282 36.953 139.154 36.5483C138.643 34.9722 137.686 31.6921 137.047 27.9648C136.43 24.2162 136.153 20.0416 137.175 16.4634C138.154 13.0982 141.134 10.2654 144.434 7.94383C147.712 5.64354 151.31 3.85444 153.417 2.89598L153.46 2.89598Z" fill="#B68F40"/>
<path d="M133.62 3.89692C134.344 3.55615 135.366 4.06731 135.28 4.74885C134.897 7.85843 133.982 14.7378 132.641 21.4468C131.151 28.9439 125.382 36.4196 123.423 38.7838C123.147 39.1032 122.487 39.018 122.295 38.6134C120.826 35.6316 116.59 26.0686 118.102 18.5289C119.528 11.4153 129.448 5.89897 133.62 3.87562L133.62 3.89692Z" fill="#B68F40"/>
<path d="M109.182 4.98381C109.927 4.79212 110.843 5.49497 110.672 6.09133C110.247 7.45443 109.715 9.71206 109.225 12.5448C108.735 15.3774 108.331 18.7852 107.926 22.3633C107.458 26.3248 105.989 30.6697 104.201 34.3118C102.434 37.9538 100.348 40.7439 99.2838 42.0218C99.007 42.3626 98.3471 42.2348 98.1768 41.8088C97.5595 40.1475 96.2397 36.825 95.005 33.0551C93.7916 29.264 92.706 24.8978 93.2169 20.6382C93.6852 16.6341 96.4738 12.6512 99.8159 9.86115C103.158 7.02846 107.011 5.55887 109.182 5.00511L109.182 4.98381Z" fill="#B68F40"/>
<path d="M227.454 61.1467C228.221 61.1893 229.051 60.4438 228.817 59.9113C227.752 57.4833 225.176 52.1585 221.813 47.3876C219.961 44.7252 217.023 42.6166 214.277 41.1896C211.531 39.7412 208.934 38.9745 207.657 38.6337C207.316 38.5485 206.784 38.9745 206.784 39.3579C206.741 40.8275 206.72 43.8306 207.039 47.0042C207.359 50.1777 208.019 53.5217 209.679 55.9071C211.254 58.1435 214.554 59.2511 218.066 59.9965C221.579 60.6994 225.283 61.0189 227.476 61.168L227.454 61.1467Z" fill="#B68F40"/>
<path d="M205.997 68.3887C206.763 68.3887 207.529 67.558 207.231 67.0255C205.89 64.5549 202.889 59.1023 199.951 53.7137C198.269 50.7319 195.672 48.0269 193.181 45.8331C190.691 43.618 188.328 41.9141 187.157 41.0834C186.838 40.8491 186.199 41.1047 186.114 41.5094C185.709 43.0429 184.986 46.2378 184.879 49.9225C184.752 53.6072 185.241 57.7605 187.051 60.9553C188.754 63.9798 192.394 65.918 196.162 66.9829C199.93 68.0692 203.783 68.3461 206.039 68.3887L205.997 68.3887Z" fill="#B68F40"/>
<path d="M186.093 71.5412C186.902 71.6903 187.711 70.9022 187.434 70.242C186.157 67.2601 183.049 60.7213 179.047 54.8002C176.833 51.4776 173.491 48.6874 170.383 46.6853C167.253 44.6619 164.337 43.4266 162.911 42.8728C162.528 42.7237 161.995 43.1284 162.017 43.5757C162.102 45.237 162.379 48.6448 163.017 52.3509C163.677 56.0569 164.72 60.0398 166.743 63.0642C168.658 65.9183 172.299 67.6861 176.088 69.0066C179.877 70.3059 183.794 71.1152 186.114 71.5625L186.093 71.5412Z" fill="#B68F40"/>
<path d="M161.804 75.3529C162.592 75.5232 163.444 74.7565 163.188 74.1175C162.039 71.157 159.335 64.6395 155.972 58.5267C152.246 51.6684 144.157 46.5354 141.496 45.0658C141.134 44.8528 140.538 45.1936 140.517 45.6195C140.368 47.2809 140.133 50.6887 140.346 54.4586C140.559 58.2498 141.219 62.3818 142.986 65.6405C144.668 68.7076 148.223 70.8162 151.927 72.371C155.631 73.9045 159.527 74.8417 161.804 75.3316L161.804 75.3529Z" fill="#B68F40"/>
<path d="M142.22 78.6979C143.008 78.8896 143.881 78.1441 143.646 77.5051C142.603 74.5659 140.198 68.0484 137.43 61.7865C134.344 54.8005 127.063 48.7516 124.658 46.8773C124.317 46.6217 123.7 46.8773 123.593 47.282C122.827 50.5194 120.762 60.7642 123.891 67.7928C126.829 74.4168 137.707 77.6329 142.241 78.6979L142.22 78.6979Z" fill="#B68F40"/>
<path d="M118.165 82.9996C118.953 83.0209 119.677 82.1477 119.379 81.5939C118.676 80.3586 117.655 78.2713 116.548 75.6089C115.441 72.9678 114.312 69.7091 113.12 66.3226C111.8 62.5739 109.395 58.6336 106.883 55.4814C104.371 52.3078 101.731 50.0289 100.411 49.0491C100.05 48.7722 99.4322 49.0491 99.3684 49.4964C99.1129 51.2642 98.5807 54.7785 98.1975 58.7401C97.8356 62.7017 97.7292 67.1958 99.1555 71.2639C100.475 75.0551 104.073 78.3352 107.947 80.316C111.843 82.3607 115.909 82.9357 118.165 82.9996Z" fill="#B68F40"/>
<path d="M1.54345e-05 28.7732C1.54345e-05 28.7732 0.681198 29.0501 1.97972 29.4335C3.29953 29.7955 5.25797 30.3493 7.74857 31.0308C10.2605 31.755 13.3471 32.5004 16.966 33.3311C18.7754 33.757 20.6912 34.2043 22.7348 34.6729C24.7997 35.0775 26.9709 35.5248 29.2487 35.9934C33.8042 36.9518 38.8492 37.7824 44.2562 38.677C46.9597 39.1668 49.7696 39.4863 52.6647 39.891C55.5597 40.2531 58.54 40.7216 61.6053 41.0198C64.6707 41.3393 67.8212 41.6588 71.0143 41.9782C74.2287 42.2125 77.5069 42.4468 80.8703 42.7024C87.5758 43.0858 94.5154 43.4265 101.625 43.4478C103.413 43.4478 105.18 43.4904 106.926 43.5117C108.693 43.4904 110.417 43.4478 112.163 43.4265C115.632 43.3626 119.038 43.3413 122.38 43.1497C125.723 42.9793 129.022 42.8728 132.236 42.6385C135.451 42.3829 138.601 42.1486 141.667 41.893C144.732 41.6375 147.712 41.2541 150.629 40.9559C153.545 40.679 156.355 40.317 159.058 39.9123C161.762 39.5289 164.401 39.1668 166.913 38.8048C169.425 38.3788 171.831 37.9528 174.13 37.5695C178.728 36.824 182.858 35.9082 186.476 35.184C190.116 34.4599 193.203 33.6718 195.758 33.2672C198.312 32.8412 200.313 32.7773 201.675 32.8625C203.038 32.9477 203.74 33.0755 203.762 33.0116C203.762 32.9903 203.591 32.9264 203.251 32.8412C202.91 32.756 202.399 32.6495 201.697 32.5643C200.334 32.3939 198.269 32.3726 195.672 32.7134C193.075 33.0542 189.967 33.7783 186.327 34.396C182.687 35.0562 178.579 35.9082 173.981 36.5897C171.682 36.9518 169.276 37.3352 166.786 37.7398C164.274 38.0593 161.655 38.4001 158.952 38.7622C156.248 39.1455 153.439 39.465 150.543 39.7419C147.648 40.0188 144.668 40.3809 141.603 40.6151C138.537 40.8494 135.408 41.0624 132.194 41.2967C128.979 41.5097 125.701 41.5949 122.359 41.7653C119.017 41.9569 115.611 41.9569 112.163 42.0208C110.438 42.0421 108.693 42.0847 106.947 42.106C105.202 42.0847 103.435 42.0634 101.668 42.0421C94.5793 42.0208 87.6609 41.6801 80.998 41.3393C77.6559 41.105 74.3777 40.8707 71.1846 40.6577C67.9915 40.3383 64.841 40.0401 61.7969 39.7419C58.7315 39.4863 55.7726 39.0391 52.8775 38.677C49.9825 38.2936 47.1726 37.9954 44.4904 37.5269C39.0834 36.6962 34.0596 35.9295 29.4828 35.0136C27.2051 34.5877 25.0125 34.183 22.969 33.7996C20.9254 33.3524 18.9882 32.9477 17.1788 32.5643C13.56 31.8189 10.4521 31.1373 7.91887 30.5197C5.38568 29.9233 3.40598 29.4761 2.08617 29.1779C0.745072 28.8797 0.0425875 28.7519 0.0213014 28.7945L1.54345e-05 28.7732Z" fill="#B68F40"/>
</g>
<defs>
<clipPath id="clip0_47_2126">
<rect width="83" height="255" fill="white" transform="matrix(1.19249e-08 -1 -1 -1.19249e-08 255 83)"/>
</clipPath>
</defs>
</svg>
