<?xml version="1.0" standalone="no"?>
<!DOCTYPE svg PUBLIC "-//W3C//DTD SVG 20010904//EN"
 "http://www.w3.org/TR/2001/REC-SVG-20010904/DTD/svg10.dtd">
<svg version="1.0" xmlns="http://www.w3.org/2000/svg"
 width="300.000000pt" height="280.000000pt" viewBox="0 0 300.000000 280.000000"
 preserveAspectRatio="xMidYMid meet">

<g transform="translate(0.000000,280.000000) scale(0.100000,-0.100000)"
fill="#000000" stroke="none">
<path d="M343 873 c-34 -7 -45 -26 -29 -49 12 -15 17 -17 27 -6 7 6 23 12 36
12 38 0 29 -35 -14 -57 -43 -20 -68 -63 -59 -99 6 -23 11 -24 76 -24 63 0 70
2 70 20 0 17 -7 20 -45 20 -53 0 -63 24 -18 41 46 17 63 39 63 79 0 21 -6 43
-13 49 -17 13 -64 21 -94 14z"/>
<path d="M630 869 c-31 -13 -40 -26 -40 -66 0 -38 24 -58 83 -68 28 -6 37 -12
35 -24 -3 -13 -14 -15 -53 -13 -30 1 -52 -2 -56 -10 -15 -23 12 -38 71 -38 67
0 90 18 90 72 0 43 -14 56 -71 66 -29 5 -44 13 -44 22 0 11 13 15 50 15 43 0
50 3 50 20 0 30 -66 43 -115 24z"/>
<path d="M1440 867 c-20 -10 -26 -21 -28 -57 -4 -47 13 -70 49 -70 10 0 30 -5
44 -10 23 -9 25 -13 15 -26 -10 -11 -24 -13 -56 -8 -36 5 -45 3 -50 -11 -10
-24 12 -35 74 -35 39 0 57 5 72 20 44 44 13 108 -58 117 -32 4 -42 10 -40 22
3 11 15 16 43 16 68 0 87 25 34 44 -41 14 -68 14 -99 -2z"/>
<path d="M806 848 c-11 -15 -16 -45 -16 -88 0 -95 13 -110 99 -110 39 0 72 5
79 12 16 16 16 180 0 196 -7 7 -40 12 -79 12 -59 0 -70 -3 -83 -22z m124 -88
l0 -60 -40 0 -40 0 0 60 0 60 40 0 40 0 0 -60z"/>
<path d="M1020 761 l0 -111 75 0 c68 0 75 2 75 20 0 17 -7 20 -45 20 l-44 0
-3 88 c-3 87 -3 87 -30 90 l-28 3 0 -110z"/>
<path d="M1220 760 l0 -110 76 0 c72 0 75 1 72 23 -3 19 -10 22 -51 25 -39 3
-48 6 -45 20 2 12 15 18 41 20 28 2 37 8 37 22 0 14 -9 20 -37 22 -26 2 -39 8
-41 20 -3 14 6 17 45 20 41 3 48 6 51 26 3 21 0 22 -72 22 l-76 0 0 -110z"/>
<path d="M733 558 c-18 -13 -33 -31 -33 -40 0 -23 2 -22 50 2 43 22 43 21 34
44 -8 21 -13 20 -51 -6z"/>
<path d="M2100 447 c0 -118 12 -147 61 -147 22 0 29 5 29 19 0 10 -9 21 -20
24 -18 5 -20 14 -20 106 l0 101 -25 0 -25 0 0 -103z"/>
<path d="M310 510 c-16 -16 -20 -33 -20 -94 0 -99 15 -118 91 -119 82 -1 99
12 99 78 l0 55 -40 0 c-33 0 -40 -3 -40 -20 0 -11 7 -20 15 -20 8 0 15 -9 15
-20 0 -17 -7 -20 -39 -20 -48 0 -52 10 -42 124 1 5 26 6 57 4 46 -4 57 -2 65
13 13 26 -16 39 -85 39 -43 0 -61 -5 -76 -20z"/>
<path d="M1110 415 l0 -115 24 0 c21 0 25 6 28 33 2 24 8 33 25 35 16 2 24 -4
33 -32 10 -30 16 -36 41 -36 l29 0 -15 37 c-14 32 -14 39 0 59 8 13 15 41 15
63 0 55 -25 71 -112 71 l-68 0 0 -115z m125 35 c0 -22 -5 -25 -37 -28 -36 -3
-38 -2 -38 28 0 30 2 31 38 28 32 -3 37 -6 37 -28z"/>
<path d="M850 484 c-8 -3 -21 -7 -28 -10 -9 -3 -10 -9 -3 -21 7 -13 20 -17 50
-14 32 2 41 -1 41 -13 0 -12 -10 -16 -39 -16 -43 0 -63 -17 -63 -55 0 -40 19
-55 74 -55 78 0 88 10 88 83 0 35 -6 71 -12 80 -13 17 -82 30 -108 21z m60
-129 c0 -9 -9 -15 -25 -15 -16 0 -25 6 -25 15 0 9 9 15 25 15 16 0 25 -6 25
-15z"/>
<path d="M1364 479 c-35 -10 -44 -29 -44 -94 0 -64 21 -85 83 -85 59 0 80 10
72 32 -5 12 -19 16 -52 15 -29 -1 -48 3 -50 11 -3 9 11 12 51 12 l56 0 0 44
c0 24 -6 48 -12 54 -20 16 -70 21 -104 11z m66 -54 c0 -16 -45 -21 -54 -6 -8
12 4 21 31 21 14 0 23 -6 23 -15z"/>
<path d="M1565 483 c-42 -11 -45 -21 -45 -139 l0 -114 25 0 c22 0 25 4 25 35
0 35 0 35 44 35 28 0 48 6 57 17 19 23 19 128 -1 147 -17 16 -75 27 -105 19z
m63 -90 c-3 -44 -5 -48 -28 -48 -21 0 -26 5 -28 33 -5 47 3 62 33 62 25 0 26
-2 23 -47z"/>
<path d="M1947 483 c-37 -6 -50 -35 -45 -105 5 -70 14 -78 85 -78 45 0 55 4
69 25 18 27 16 127 -2 145 -12 11 -72 19 -107 13z m61 -90 c-3 -44 -5 -48 -28
-48 -21 0 -26 5 -28 33 -5 47 3 62 33 62 25 0 26 -2 23 -47z"/>
<path d="M520 409 c0 -99 7 -109 78 -109 32 0 63 5 70 12 7 7 12 43 12 90 0
77 0 78 -25 78 -24 0 -25 -2 -25 -65 l0 -65 -30 0 -30 0 0 65 c0 63 -1 65 -25
65 -24 0 -25 -2 -25 -71z"/>
<path d="M720 390 c0 -89 0 -90 25 -90 25 0 25 1 25 90 0 89 0 90 -25 90 -25
0 -25 -1 -25 -90z"/>
<path d="M1732 468 c-7 -7 -12 -27 -12 -45 0 -35 12 -45 73 -58 42 -9 21 -27
-26 -23 -36 3 -42 0 -42 -17 0 -17 8 -20 56 -23 65 -3 89 12 89 57 0 35 -13
46 -63 55 -23 4 -35 11 -31 18 4 6 21 8 40 5 26 -5 36 -2 44 13 7 13 6 19 -6
24 -27 10 -110 6 -122 -6z"/>
<path d="M2334 459 c-5 -8 1 -10 20 -7 32 6 62 -13 53 -36 -4 -9 -22 -24 -42
-33 -30 -14 -35 -22 -35 -50 0 -32 1 -33 45 -33 25 0 45 5 45 10 0 6 -15 10
-33 10 -19 0 -36 3 -40 6 -12 12 6 35 38 48 62 26 55 96 -10 96 -18 0 -37 -5
-41 -11z"/>
<path d="M2467 463 c-4 -3 -7 -39 -7 -79 0 -78 4 -84 60 -84 19 0 33 7 40 19
14 27 13 124 -2 139 -13 13 -80 17 -91 5z m67 -16 c13 -10 17 -24 14 -67 -3
-52 -4 -55 -32 -58 -16 -2 -32 2 -37 10 -15 22 -10 95 7 112 19 19 25 20 48 3z"/>
<path d="M2604 459 c-5 -8 2 -10 21 -6 66 12 78 -36 17 -68 -29 -16 -38 -27
-40 -52 -3 -33 -3 -33 42 -33 25 0 46 5 46 10 0 6 -16 10 -35 10 -48 0 -47 29
3 55 39 21 53 55 32 81 -15 17 -76 19 -86 3z"/>
<path d="M2740 430 c0 -39 1 -40 35 -40 37 0 60 -25 49 -55 -5 -13 -16 -16
-46 -13 -23 2 -37 0 -35 -7 5 -15 66 -18 83 -4 10 8 14 26 12 48 -3 32 -7 37
-41 45 -30 8 -37 14 -35 30 2 15 13 23 38 27 33 6 32 6 -12 8 l-48 1 0 -40z"/>
</g>
</svg>
