<svg width="212" height="45" viewBox="0 0 212 45" fill="none" xmlns="http://www.w3.org/2000/svg">
<line x1="20" y1="34.5" x2="65" y2="34.5" stroke="#808080"/>
<line x1="84" y1="34.5" x2="129" y2="34.5" stroke="#808080"/>
<line x1="148" y1="34.5" x2="193" y2="34.5" stroke="#808080"/>
<circle cx="10" cy="35" r="10" fill="#808080"/>
<circle cx="74" cy="35" r="9.5" stroke="#808080"/>
<circle cx="138" cy="35" r="9.5" stroke="#808080"/>
<circle cx="202" cy="35" r="9.5" stroke="#808080"/>
<path d="M9.40738 15V5.752H7.99938L8.52738 3.8H11.3594V15H9.40738Z" fill="#808080"/>
<path d="M70.0697 15V13.256C70.4164 12.9947 70.827 12.672 71.3017 12.288C71.7764 11.8987 72.2644 11.48 72.7657 11.032C73.267 10.5787 73.731 10.1253 74.1577 9.672C74.5844 9.21867 74.931 8.78667 75.1977 8.376C75.4697 7.96533 75.6057 7.61333 75.6057 7.32C75.6057 6.99467 75.5257 6.69867 75.3657 6.432C75.2057 6.16 74.9924 5.944 74.7257 5.784C74.4644 5.624 74.171 5.544 73.8457 5.544C73.5204 5.544 73.2244 5.624 72.9577 5.784C72.691 5.944 72.4777 6.16 72.3177 6.432C72.1577 6.69867 72.0777 6.99467 72.0777 7.32H70.1257C70.1257 6.616 70.2964 5.984 70.6377 5.424C70.979 4.85867 71.4297 4.41333 71.9897 4.088C72.555 3.75733 73.1737 3.592 73.8457 3.592C74.5284 3.592 75.1497 3.76 75.7097 4.096C76.2697 4.42667 76.7177 4.87467 77.0537 5.44C77.3897 6.00533 77.5577 6.632 77.5577 7.32C77.5577 7.68267 77.491 8.048 77.3577 8.416C77.2244 8.784 77.0377 9.15467 76.7977 9.528C76.5577 9.90133 76.275 10.28 75.9497 10.664C75.6244 11.0427 75.2644 11.432 74.8697 11.832C74.4804 12.2267 74.0697 12.632 73.6377 13.048H77.6137V15H70.0697Z" fill="#404040"/>
<path d="M138.494 15.208C137.817 15.208 137.206 15.048 136.662 14.728C136.118 14.408 135.686 13.9787 135.366 13.44C135.046 12.896 134.886 12.2933 134.886 11.632H136.838C136.838 11.9307 136.908 12.2027 137.046 12.448C137.19 12.6933 137.388 12.8907 137.638 13.04C137.889 13.184 138.174 13.256 138.494 13.256C138.788 13.256 139.06 13.184 139.31 13.04C139.566 12.8907 139.772 12.6933 139.926 12.448C140.081 12.2027 140.158 11.9307 140.158 11.632C140.158 11.2427 140.054 10.92 139.846 10.664C139.638 10.4027 139.348 10.208 138.974 10.08C138.606 9.952 138.177 9.888 137.686 9.888V8.384C138.348 8.384 138.87 8.25867 139.254 8.008C139.644 7.75733 139.838 7.38933 139.838 6.904C139.838 6.65333 139.774 6.424 139.646 6.216C139.518 6.008 139.348 5.84267 139.134 5.72C138.926 5.592 138.697 5.528 138.446 5.528C138.19 5.528 137.942 5.592 137.702 5.72C137.462 5.84267 137.265 6.008 137.11 6.216C136.961 6.424 136.886 6.65333 136.886 6.904H134.934C134.934 6.44533 135.028 6.016 135.214 5.616C135.401 5.21067 135.657 4.856 135.982 4.552C136.313 4.248 136.686 4.01067 137.102 3.84C137.524 3.664 137.964 3.576 138.422 3.576C139.025 3.576 139.582 3.72533 140.094 4.024C140.606 4.32267 141.017 4.72267 141.326 5.224C141.636 5.72533 141.79 6.28533 141.79 6.904C141.79 7.336 141.689 7.76 141.486 8.176C141.284 8.592 140.996 8.88533 140.622 9.056C140.948 9.17333 141.22 9.37067 141.438 9.648C141.657 9.92 141.822 10.232 141.934 10.584C142.052 10.9307 142.11 11.28 142.11 11.632C142.11 12.288 141.945 12.888 141.614 13.432C141.284 13.9707 140.844 14.4027 140.294 14.728C139.75 15.048 139.15 15.208 138.494 15.208Z" fill="#404040"/>
<path d="M202.775 15V12.288H198.007V10.328L202.319 3.8H204.727V10.336H205.671V12.288H204.727V15H202.775ZM200.271 10.328L202.775 10.336L202.767 6.464L200.271 10.328Z" fill="#404040"/>
</svg>
