<?xml version="1.0" standalone="no"?>
<!DOCTYPE svg PUBLIC "-//W3C//DTD SVG 20010904//EN"
 "http://www.w3.org/TR/2001/REC-SVG-20010904/DTD/svg10.dtd">
<svg version="1.0" xmlns="http://www.w3.org/2000/svg"
 width="163.000000pt" height="300.000000pt" viewBox="0 0 163.000000 300.000000"
 preserveAspectRatio="xMidYMid meet">

<g transform="translate(0.000000,300.000000) scale(0.100000,-0.100000)"
fill="#000000" stroke="none">
<path d="M0 1500 l0 -1500 815 0 815 0 0 1500 0 1500 -815 0 -815 0 0 -1500z
m118 1408 c-5 -27 26 -178 35 -169 11 11 14 118 4 154 -6 24 -5 27 16 27 21 0
24 -7 36 -77 20 -124 22 -126 42 -38 10 44 16 88 13 98 -4 11 0 17 11 17 12 0
15 -5 11 -16 -3 -9 -18 -78 -33 -153 -14 -75 -29 -140 -33 -144 -4 -4 -13 25
-20 65 -20 116 -25 120 -40 32 -7 -43 -16 -86 -21 -94 -9 -17 -9 -16 -39 150
-12 63 -26 123 -31 132 -13 26 -12 28 21 28 19 0 30 -5 28 -12z m612 -9 c4 -6
5 -22 2 -37 l-6 -27 -8 33 c-10 39 -33 51 -55 29 -30 -30 -19 -66 36 -119 46
-44 51 -53 51 -93 0 -62 -25 -87 -85 -83 l-45 3 0 43 c0 26 4 41 10 37 6 -3
10 -14 10 -24 0 -24 34 -54 57 -49 13 2 19 14 21 39 3 31 -2 41 -35 69 -67 59
-80 107 -42 169 18 30 24 33 52 27 17 -3 34 -11 37 -17z m-410 -59 c0 -23 -25
-27 -33 -6 -7 16 1 26 20 26 7 0 13 -9 13 -20z m820 -35 c0 -14 6 -25 13 -26
10 0 10 -2 0 -6 -9 -3 -13 -30 -13 -84 0 -71 9 -98 23 -69 3 6 4 5 3 -2 -3
-16 -35 -23 -47 -11 -10 10 -14 197 -5 212 12 19 26 12 26 -14z m190 0 c0 -14
6 -25 13 -26 10 0 10 -2 0 -6 -9 -3 -13 -29 -13 -78 0 -67 11 -101 23 -75 3 6
4 5 3 -2 -4 -19 -42 -22 -49 -3 -9 22 -11 191 -3 204 12 19 26 12 26 -14z
m-1010 -110 c0 -78 2 -85 20 -85 18 0 20 7 20 79 0 54 -4 81 -12 84 -7 3 11 5
40 5 28 0 55 -5 60 -11 4 -7 9 -47 12 -90 5 -72 4 -77 -15 -77 -19 0 -20 6
-17 76 4 81 -8 112 -28 74 -7 -12 -10 -49 -8 -86 l3 -64 -55 0 -55 0 0 90 c0
79 2 90 18 90 15 0 17 -11 17 -85z m240 54 c15 -35 4 -49 -37 -49 -18 0 -23
-6 -23 -28 0 -16 6 -37 14 -47 12 -17 16 -18 32 -5 15 13 17 13 12 0 -8 -25
-54 -24 -72 2 -20 29 -21 107 0 136 23 33 59 29 74 -9z m300 5 c26 -68 0 -162
-42 -151 -18 5 -20 1 -16 -44 3 -43 1 -49 -17 -49 -19 0 -20 6 -17 127 2 96 0
128 -10 134 -8 5 8 9 40 9 47 0 53 -3 62 -26z m118 -7 c8 -16 12 -31 9 -34 -5
-5 -32 -11 -54 -12 -19 -1 -16 -66 3 -82 14 -11 18 -10 31 6 15 20 15 20 11 0
-5 -30 -52 -32 -72 -3 -21 29 -21 107 0 136 21 30 55 25 72 -11z m110 1 c2
-20 -1 -28 -12 -28 -11 0 -16 9 -16 26 0 16 -5 24 -12 22 -8 -3 -14 -29 -16
-70 -2 -51 1 -68 14 -79 14 -11 18 -11 30 6 8 10 14 14 14 9 0 -16 -22 -34
-42 -34 -44 0 -67 105 -34 156 24 36 70 31 74 -8z m176 16 c3 -9 6 -46 6 -84
0 -45 4 -70 13 -73 6 -3 -8 -5 -33 -5 -76 0 -94 39 -40 86 29 26 43 82 20 82
-5 0 -10 -11 -10 -25 0 -16 -6 -25 -15 -25 -15 0 -21 40 -8 53 13 13 61 7 67
-9z m202 -16 c39 -75 -27 -192 -75 -134 -33 39 -32 146 2 159 33 14 57 6 73
-25z m109 8 c0 -11 -6 -21 -12 -23 -7 -3 -13 2 -13 11 0 24 -17 19 -24 -6 -10
-39 -7 -113 6 -126 9 -9 5 -12 -17 -12 l-30 0 0 90 0 89 45 -2 c37 -2 45 -5
45 -21z m-1254 -431 c-18 -94 10 -193 73 -263 100 -110 266 -113 369 -7 42 44
43 45 21 109 -20 57 -16 209 5 229 11 10 12 6 7 -18 -17 -84 -18 -133 -1 -191
l17 -59 15 29 c21 40 28 136 14 192 -14 53 -7 71 10 28 19 -47 16 -162 -6
-222 l-19 -52 40 -41 c105 -111 268 -109 369 3 71 78 94 177 71 298 -6 36 -6
43 5 33 21 -21 24 -173 5 -229 -34 -102 -110 -174 -206 -197 l-50 -12 0 -262
0 -262 88 -4 c48 -1 2 -3 -103 -3 -104 0 -148 2 -97 3 l92 4 0 262 0 262 -50
12 c-56 14 -129 59 -153 97 l-17 25 -48 -48 c-45 -45 -117 -81 -164 -81 -17 0
-18 -15 -18 -265 l0 -264 88 -4 c48 -1 4 -3 -98 -3 -102 0 -146 2 -97 3 l87 4
0 264 0 265 -22 0 c-69 1 -172 80 -215 165 -31 60 -42 167 -23 235 17 60 24
36 11 -35z m397 -1073 c3 -11 0 -12 -18 -2 -55 29 -68 -25 -16 -65 43 -33 50
-52 31 -81 -11 -18 -25 -24 -50 -24 -19 0 -35 3 -35 8 0 4 17 7 37 7 31 0 39
4 41 22 2 15 -5 27 -25 39 -55 34 -67 68 -37 99 19 19 65 16 72 -3z m391 4
c47 -25 63 -83 36 -135 -17 -33 -33 -41 -85 -41 -51 0 -80 35 -80 95 0 36 5
48 31 69 35 29 58 32 98 12z m-659 -16 c8 -14 8 -26 0 -40 -8 -15 -6 -24 10
-40 24 -24 25 -38 3 -62 -10 -11 -30 -18 -55 -18 l-38 0 0 90 0 90 35 0 c24 0
37 -6 45 -20z m123 13 c-30 -4 -33 -7 -33 -40 0 -32 2 -35 25 -31 14 3 25 1
25 -3 0 -5 -11 -9 -25 -9 -23 0 -25 -4 -25 -41 0 -41 0 -41 30 -35 19 3 29 2
25 -4 -3 -6 -23 -10 -44 -10 l-37 0 1 90 0 90 45 -2 c37 -1 39 -2 13 -5z m284
0 l-38 -4 3 -85 c2 -62 0 -84 -9 -84 -10 0 -13 24 -13 84 l0 85 -32 4 c-18 2
3 4 47 4 44 0 63 -2 42 -4z m396 0 c-30 -4 -33 -7 -33 -40 0 -32 2 -35 25 -31
17 4 25 1 25 -9 0 -9 -7 -12 -25 -7 -24 6 -25 4 -25 -40 0 -31 -4 -46 -13 -46
-9 0 -12 24 -12 90 l0 90 45 -2 c37 -1 39 -2 13 -5z m-989 -311 c23 -62 30
-92 21 -92 -6 0 -16 15 -21 33 -9 28 -14 32 -44 32 -31 0 -36 -4 -45 -32 -5
-18 -15 -33 -21 -33 -8 0 0 29 20 78 18 42 36 86 40 96 3 10 9 17 11 14 3 -2
20 -46 39 -96z m389 13 c14 -38 28 -78 32 -87 5 -12 2 -18 -7 -18 -8 0 -18 15
-23 33 -9 28 -14 32 -45 32 -30 0 -35 -4 -44 -32 -5 -18 -16 -33 -24 -33 -10
0 -12 4 -5 13 5 6 25 49 43 95 18 46 36 80 40 75 4 -4 19 -39 33 -78z m158 66
c22 -18 23 -21 11 -55 -12 -33 -11 -39 8 -66 12 -16 29 -34 38 -40 15 -8 14
-9 -6 -10 -15 0 -31 13 -50 40 -15 21 -35 39 -46 40 -15 0 -18 -6 -14 -40 3
-31 0 -40 -12 -40 -23 0 -16 177 8 183 32 9 40 7 63 -12z m208 8 c64 -23 79
-116 24 -159 -18 -14 -40 -20 -77 -20 l-51 0 0 90 c0 73 3 90 15 90 12 0 15
-16 15 -82 0 -80 1 -83 24 -86 43 -6 69 7 80 40 18 51 -2 96 -53 118 -45 20
-28 27 23 9z m290 -4 c53 -27 62 -104 18 -152 -15 -17 -32 -23 -62 -23 -68 0
-107 58 -85 125 19 57 75 78 129 50z m139 -3 c-36 -3 -38 -5 -38 -39 0 -34 1
-35 31 -29 22 4 29 2 26 -7 -2 -7 -16 -11 -31 -9 -28 4 -28 3 -25 -42 3 -36 1
-46 -11 -46 -12 0 -14 15 -12 89 l3 90 37 3 c20 2 42 1 47 -2 6 -3 -7 -6 -27
-8z m-1109 -58 c13 -36 27 -62 31 -57 4 4 15 31 25 58 10 28 21 54 25 58 4 5
18 -22 31 -58 20 -57 25 -64 35 -50 7 9 18 39 25 66 7 27 18 49 25 49 10 0
-43 -160 -58 -176 -3 -3 -16 24 -29 60 -21 58 -39 84 -39 56 0 -23 -43 -121
-50 -113 -18 19 -67 173 -56 173 7 0 23 -30 35 -66z m-164 -164 c4 -6 -8 -10
-30 -10 -35 0 -36 -1 -33 -32 3 -29 6 -33 31 -30 15 1 27 -2 27 -8 0 -5 -14
-10 -31 -10 -29 0 -30 -2 -27 -37 3 -35 6 -38 31 -36 15 1 27 -2 27 -8 0 -5
-19 -9 -42 -9 l-43 0 3 89 c3 74 6 91 20 94 31 8 61 7 67 -3z m75 -14 c0 -7 6
-21 14 -31 13 -19 15 -18 32 18 10 20 21 37 26 37 12 0 10 -9 -14 -52 l-23
-40 27 -49 c24 -45 24 -49 7 -49 -11 0 -19 7 -19 18 0 9 -7 25 -14 35 -13 17
-15 17 -30 -5 -9 -12 -16 -28 -16 -35 0 -7 -6 -13 -14 -13 -11 0 -8 12 11 46
l26 47 -21 41 c-26 48 -27 57 -7 50 8 -4 15 -12 15 -18z m238 18 c12 -4 22
-13 22 -21 0 -12 -3 -12 -22 1 -30 21 -61 20 -88 -2 -31 -25 -30 -95 1 -128
25 -26 76 -32 98 -11 11 10 13 9 9 -3 -3 -10 -21 -16 -53 -18 -56 -4 -91 21
-101 74 -14 76 52 130 134 108z m152 -4 c0 -5 -13 -10 -30 -10 -28 0 -30 -3
-30 -36 0 -34 2 -36 25 -30 14 4 25 2 25 -4 0 -5 -12 -10 -26 -10 -23 0 -25
-3 -22 -37 3 -35 5 -38 31 -36 15 1 25 -2 22 -8 -4 -5 -23 -9 -44 -9 l-37 0 3
93 c1 50 3 93 3 95 0 8 80 0 80 -8z m71 -79 c-2 -78 -2 -80 23 -87 14 -3 30
-3 35 1 6 3 11 1 11 -4 0 -6 -20 -11 -45 -11 l-45 0 0 88 c0 81 5 110 18 97 3
-2 4 -41 3 -84z m131 -6 c3 -80 3 -80 31 -80 15 1 27 -3 27 -7 0 -4 -19 -8
-42 -8 l-43 0 2 92 c1 51 2 95 3 98 0 2 4 0 10 -6 5 -5 10 -45 12 -89z m183
85 c4 -6 -8 -10 -30 -10 -35 0 -36 -1 -33 -32 3 -29 6 -33 31 -31 15 1 27 -2
27 -8 0 -5 -14 -9 -31 -9 -29 0 -30 -2 -27 -37 3 -34 6 -38 31 -38 15 1 27 -3
27 -7 0 -4 -19 -8 -42 -8 l-43 0 3 87 c2 53 8 91 15 95 17 11 65 10 72 -2z
m215 -91 c0 -49 -3 -89 -7 -89 -3 0 -37 33 -75 73 l-69 72 3 -72 c3 -57 1 -73
-10 -73 -9 0 -12 6 -8 16 3 9 6 50 6 92 l1 77 69 -73 70 -74 0 77 c0 48 4 74
10 70 6 -3 10 -46 10 -96z m168 95 c12 -4 22 -13 22 -21 0 -12 -3 -12 -22 1
-51 36 -118 3 -118 -56 0 -67 47 -109 105 -94 14 4 25 2 25 -4 0 -5 -23 -10
-50 -10 -64 0 -100 30 -100 84 0 83 54 122 138 100z m147 -4 c4 -6 -8 -10 -30
-10 -35 0 -36 -1 -33 -32 3 -29 6 -33 31 -31 15 1 27 -2 27 -8 0 -5 -14 -9
-31 -9 -29 0 -30 -2 -27 -37 3 -35 6 -38 31 -36 15 1 27 -2 27 -8 0 -5 -19 -9
-42 -9 l-43 0 3 95 3 95 39 0 c21 0 42 -4 45 -10z m-1151 -354 c42 -17 66 -51
66 -93 0 -52 -17 -81 -85 -152 -36 -37 -65 -71 -65 -74 0 -4 29 -7 64 -7 56 0
67 3 82 23 16 22 16 22 9 -8 -3 -16 -10 -34 -14 -38 -4 -4 -54 -6 -111 -5
l-104 3 67 74 c68 76 107 141 107 179 0 36 -21 70 -51 83 -24 9 -33 9 -55 -6
-15 -9 -29 -26 -31 -36 -8 -27 -22 -13 -19 18 2 20 11 30 37 39 45 17 63 17
103 0z m356 -14 c93 -67 92 -264 -2 -322 -25 -16 -45 -20 -86 -17 -88 6 -132
65 -132 177 0 117 69 197 160 185 19 -2 46 -13 60 -23z m254 14 c44 -18 66
-52 66 -99 0 -51 -18 -81 -89 -152 -34 -33 -61 -63 -61 -67 0 -4 29 -8 64 -8
56 0 67 3 82 23 16 22 16 22 10 -12 -3 -19 -8 -36 -10 -38 -2 -2 -51 -2 -110
-1 l-106 3 66 75 c101 117 121 167 89 229 -27 53 -102 46 -125 -12 -7 -19 -9
-17 -9 14 -1 32 3 37 32 47 45 14 63 14 101 -2z m336 0 c0 -26 -15 -31 -79
-28 -64 3 -69 2 -74 -20 -12 -43 -8 -58 16 -58 30 -1 98 -33 120 -58 27 -29
33 -92 13 -130 -23 -45 -65 -64 -134 -60 l-57 3 -3 35 -4 35 22 -28 c17 -22
30 -27 64 -27 47 0 70 17 81 60 14 58 -36 112 -117 125 -43 8 -42 5 -26 91
l11 64 84 0 c46 0 83 -2 83 -4z"/>
<path d="M506 2754 c-10 -25 -7 -34 9 -34 9 0 15 9 15 25 0 28 -15 34 -24 9z"/>
<path d="M807 2764 c-14 -14 -8 -131 8 -144 21 -17 27 3 23 80 -3 58 -14 81
-31 64z"/>
<path d="M927 2763 c-13 -12 -7 -43 8 -43 9 0 15 9 15 25 0 24 -10 32 -23 18z"/>
<path d="M1223 2679 c-16 -16 -17 -55 -3 -64 13 -8 22 17 18 50 -2 21 -5 24
-15 14z"/>
<path d="M1404 2756 c-3 -7 -4 -42 -2 -77 2 -49 7 -64 18 -64 12 0 16 17 18
78 2 65 0 77 -13 77 -9 0 -18 -6 -21 -14z"/>
<path d="M1026 1239 c-55 -44 -21 -149 49 -149 68 0 86 90 30 146 -29 29 -45
30 -79 3z"/>
<path d="M390 1216 c0 -30 4 -36 20 -36 40 0 36 60 -4 68 -12 3 -16 -4 -16
-32z"/>
<path d="M392 1133 c3 -33 7 -38 30 -41 38 -4 50 34 18 60 -36 30 -52 23 -48
-19z"/>
<path d="M201 960 c-9 -28 -8 -30 15 -30 26 0 27 3 18 38 -9 30 -20 28 -33 -8z"/>
<path d="M596 968 c-9 -35 -8 -38 18 -38 23 0 24 2 15 30 -13 36 -24 38 -33 8z"/>
<path d="M750 980 c0 -36 3 -40 25 -40 18 0 26 7 31 25 7 29 -10 55 -37 55
-15 0 -19 -8 -19 -40z"/>
<path d="M1220 1010 c-28 -28 -27 -98 0 -128 24 -26 72 -29 94 -6 26 25 21
100 -9 129 -29 30 -58 32 -85 5z"/>
<path d="M643 428 c-67 -33 -72 -229 -8 -294 34 -34 87 -33 114 2 37 47 26
222 -17 273 -21 25 -60 34 -89 19z"/>
</g>
</svg>
